<svg width="24" height="24" viewBox="0 0 24 24" fill="none" xmlns="http://www.w3.org/2000/svg">
<path fill-rule="evenodd" clip-rule="evenodd" d="M10.7077 9.29199C9.69768 9.77483 9 10.806 9 12.0001C9 13.657 10.3431 15.0001 12 15.0001C13.1941 15.0001 14.2253 14.3025 14.7081 13.2925L10.7077 9.29199ZM13 12.0001C13 12.5524 12.5523 13.0001 12 13.0001C11.4477 13.0001 11 12.5524 11 12.0001C11 11.4479 11.4477 11.0001 12 11.0001C12.5523 11.0001 13 11.4479 13 12.0001Z" fill="#3A3133"/>
<path d="M7.50103 6.08517C4.98549 7.38362 3.39313 9.54721 2.60186 10.8666C2.17959 11.5708 2.17959 12.4292 2.60186 13.1334C3.79014 15.1148 6.78504 19 12.0001 19C14.6127 19 16.6682 18.0249 18.2184 16.8025L16.7919 15.376C15.5479 16.3033 13.96 17 12.0001 17C7.88801 17 5.41349 13.933 4.31706 12.1047C4.29201 12.063 4.28516 12.0278 4.28516 12C4.28516 11.9722 4.29201 11.937 4.31706 11.8953C5.11583 10.5633 6.64599 8.57399 9.00786 7.592L7.50103 6.08517Z" fill="#3A3133"/>
<path d="M18.2678 14.0235C18.8757 13.3503 19.3449 12.6686 19.6831 12.1047C19.7081 12.063 19.715 12.0278 19.715 12C19.715 11.9722 19.7081 11.937 19.6831 11.8953C18.5866 10.067 16.1121 7 12.0001 7C11.753 7 11.5119 7.01107 11.2766 7.03228L9.54823 5.30394C10.3036 5.11058 11.1203 5 12.0001 5C17.2151 5 20.21 8.88521 21.3983 10.8666C21.8205 11.5708 21.8205 12.4292 21.3983 13.1334C21.0169 13.7693 20.4495 14.6013 19.6823 15.438L18.2678 14.0235Z" fill="#3A3133"/>
<path fill-rule="evenodd" clip-rule="evenodd" d="M2.29289 2.29289C2.68342 1.90237 3.31658 1.90237 3.70711 2.29289L21.7071 20.2929C22.0976 20.6834 22.0976 21.3166 21.7071 21.7071C21.3166 22.0976 20.6834 22.0976 20.2929 21.7071L2.29289 3.70711C1.90237 3.31658 1.90237 2.68342 2.29289 2.29289Z" fill="#3A3133"/>
</svg>
