<svg width="16" height="21" viewBox="0 0 16 21" fill="none" xmlns="http://www.w3.org/2000/svg">
<circle cx="8" cy="13" r="8" fill="#E33E55"/>
<path d="M5.04901 18V17.048L7.70901 14.262C8.09167 13.8607 8.42301 13.5013 8.70301 13.184C8.98301 12.8573 9.19767 12.54 9.34701 12.232C9.49634 11.9147 9.57101 11.5787 9.57101 11.224C9.57101 10.6173 9.40301 10.202 9.06701 9.978C8.74034 9.74467 8.24567 9.628 7.58301 9.628C7.34034 9.628 7.06967 9.64667 6.77101 9.684C6.47234 9.712 6.18301 9.74933 5.90301 9.796C5.63234 9.83333 5.39901 9.87533 5.20301 9.922L5.11901 8.998C5.31501 8.942 5.55767 8.886 5.84701 8.83C6.13634 8.774 6.44901 8.72733 6.78501 8.69C7.13034 8.64333 7.46634 8.62 7.79301 8.62C8.77301 8.62 9.50567 8.816 9.99101 9.208C10.4857 9.6 10.733 10.23 10.733 11.098C10.733 11.5553 10.6583 11.966 10.509 12.33C10.369 12.694 10.1543 13.0533 9.86501 13.408C9.58501 13.7533 9.22567 14.1407 8.78701 14.57L6.36501 17.02H10.957V18H5.04901Z" fill="white"/>
</svg>
