<svg width="32" height="32" viewBox="0 0 32 32" fill="none" xmlns="http://www.w3.org/2000/svg">
<circle cx="16" cy="16" r="16" fill="#FBFBFD"/>
<path fill-rule="evenodd" clip-rule="evenodd" d="M23.8541 20.4493C24.6092 22.7145 22.2936 24.7871 20.1256 23.7865L7.58367 17.9979C5.4721 17.0233 5.47211 14.0222 7.58368 13.0476L20.1256 7.25905C22.2936 6.25842 24.6092 8.33098 23.8541 10.5962L22.4993 14.6607C22.3128 15.2202 22.3127 15.8252 22.4993 16.3848L23.8541 20.4493ZM20.8871 22.1364L8.34526 16.3478C7.64141 16.0229 7.6414 15.0225 8.34526 14.6977L20.8871 8.90914C21.6098 8.5756 22.3817 9.26646 22.13 10.0215L20.7752 14.086C20.7173 14.2597 20.6701 14.4361 20.6338 14.6141L13.1251 14.6141C12.6232 14.6141 12.2164 15.0209 12.2164 15.5228C12.2164 16.0246 12.6232 16.4314 13.1251 16.4314H20.6338C20.6701 16.6094 20.7173 16.7858 20.7752 16.9595L22.13 21.024C22.3817 21.779 21.6098 22.4699 20.8871 22.1364Z" fill="#4C4763"/>
</svg>
