<svg width="24" height="25" viewBox="0 0 24 25" fill="none" xmlns="http://www.w3.org/2000/svg">
<path d="M13 16.375C13.5978 16.0292 14 15.3829 14 14.6426C14 13.538 13.1046 12.6426 12 12.6426C10.8954 12.6426 10 13.538 10 14.6426C10 15.3829 10.4022 16.0292 11 16.375V17.6426C11 18.1949 11.4477 18.6426 12 18.6426C12.5523 18.6426 13 18.1949 13 17.6426V16.375Z" fill="#4076D5"/>
<path fill-rule="evenodd" clip-rule="evenodd" d="M7 8.64258V7.64258C7 4.88115 9.23858 2.64258 12 2.64258C14.7614 2.64258 17 4.88115 17 7.64258V8.64258C18.6569 8.64258 20 9.98572 20 11.6426V19.6426C20 21.2994 18.6569 22.6426 17 22.6426H7C5.34315 22.6426 4 21.2994 4 19.6426V11.6426C4 9.98572 5.34315 8.64258 7 8.64258ZM9 7.64258C9 5.98572 10.3431 4.64258 12 4.64258C13.6569 4.64258 15 5.98572 15 7.64258V8.64258H9V7.64258ZM6 11.6426C6 11.0903 6.44772 10.6426 7 10.6426H17C17.5523 10.6426 18 11.0903 18 11.6426V19.6426C18 20.1949 17.5523 20.6426 17 20.6426H7C6.44772 20.6426 6 20.1949 6 19.6426V11.6426Z" fill="#4076D5"/>
</svg>
