<svg width="494" height="478" viewBox="0 0 494 478" fill="none" xmlns="http://www.w3.org/2000/svg">
<path d="M51.9408 298.075C51.8353 297.372 51.413 296.894 51.046 296.285C50.679 295.676 50.7239 294.918 50.1512 294.495C49.5785 294.073 49.0528 293.772 48.3616 293.6C47.6704 293.429 46.3816 293.495 45.6772 293.6C44.9728 293.706 44.498 294.129 43.8876 294.495C43.2772 294.862 42.5215 294.819 42.098 295.39C41.6745 295.962 41.3753 297.385 41.2032 298.075C41.0311 298.765 41.0977 299.162 41.2032 299.865L65.3627 444.834H76.1003L51.9408 298.075Z" fill="#FBFBFD"/>
<path d="M43.8872 300.76L141.42 192.48L142.315 193.375L146.789 201.429L51.9404 307.919C51.4681 308.46 50.7938 308.499 50.1508 308.814C49.5077 309.13 48.1806 309.668 47.4664 309.709C46.7521 309.75 46.3515 309.948 45.6768 309.709C45.002 309.47 44.4179 308.402 43.8872 307.919C43.3565 307.436 43.2968 307.676 42.9924 307.024C42.688 306.373 42.1285 305.059 42.0976 304.34C42.0667 303.62 41.8503 303.226 42.0976 302.55C42.3449 301.874 43.3999 301.287 43.8872 300.76Z" fill="#FBFBFD"/>
<path d="M51.0454 302.551C51.09 302.991 51.1235 302.551 51.0454 302.551C50.9702 301.919 50.6834 301.167 50.1505 300.761C49.7426 300.447 48.8845 299.956 48.3607 299.866C47.8369 299.777 47.97 299.708 47.4659 299.866C46.8266 300.06 46.0705 300.26 45.6761 300.761C45.2818 301.262 44.7813 302.828 44.7812 303.446C44.7813 304.063 45.2818 304.735 45.6761 305.235C46.0705 305.736 46.8266 305.937 47.4659 306.13C47.9706 306.289 47.8365 306.222 48.3607 306.13C48.885 306.039 49.7448 305.554 50.1505 305.235C50.6846 304.835 50.972 304.075 51.0454 303.446C51.0454 303.006 51.1792 302.551 51.0454 302.551C50.9115 302.551 50.3934 303.686 49.2556 304.341C48.945 304.526 48.7295 305.202 48.3607 305.235C47.992 305.269 47.8104 305.361 47.4659 305.235C47.0732 305.074 46.8049 304.672 46.571 304.341C46.3371 304.009 45.6761 303.841 45.6761 303.446C45.6761 303.051 46.3371 301.987 46.571 301.656C46.8049 301.325 47.0732 300.923 47.4659 300.761C47.8104 300.636 47.992 300.727 48.3607 300.761C48.7295 300.795 48.945 301.471 49.2556 301.656C50.3934 302.372 50.8669 302.612 51.0454 302.551Z" fill="#F2F0FB"/>
<path d="M49.2571 293.601C49.1423 293.509 47.3685 294.572 45.6779 296.286C44.6536 297.28 43.9019 298.768 42.9935 299.865C42.3786 300.577 41.4666 300.758 41.2039 301.655C40.9412 302.552 41.0679 303.416 41.2039 304.34C41.4499 305.263 42.3008 306.356 42.9935 307.024C43.6862 307.693 44.7345 308.59 45.6779 308.814C46.4222 309.013 46.7036 308.918 47.4675 308.814C48.2314 308.71 49.4904 308.309 50.1519 307.919C52.3226 306.575 52.9093 305.286 52.8363 305.235C52.7632 305.183 51.3234 305.998 49.2571 307.024C48.0751 307.616 46.9463 308.3 45.6779 307.919C44.9303 307.715 44.4369 306.669 43.8883 306.13C43.3397 305.59 42.3062 305.075 42.0987 304.34C42.0011 303.561 42.7748 303.304 42.9935 302.55C43.2122 301.796 43.3879 300.476 43.8883 299.865C44.7858 298.624 45.8213 298.115 46.5727 297.181C48.1068 295.385 49.3614 293.704 49.2571 293.601Z" fill="#F2F0FB"/>
<path d="M119.05 458.257H29.5703C29.5703 458.257 40.9433 443.939 70.731 443.939C98.4728 443.939 115.054 452.138 119.05 458.257Z" fill="#F2F0FB"/>
<path d="M141.419 174.582L136.945 168.318L142.314 163.844L147.683 170.108L141.419 174.582Z" fill="#FBFBFD"/>
<path d="M133.367 179.952L153.053 165.634L171.843 188.006C204.424 193.305 217.478 213.957 217.478 213.957L159.316 258.701C139.35 236.613 148.579 205.008 148.579 205.008L133.367 179.952Z" fill="#FBFBFD"/>
<path d="M148.577 205.009C148.758 205.254 153.8 201.628 160.209 196.955C166.619 192.282 172.023 188.251 171.842 188.006C171.661 187.761 166.63 191.387 160.209 196.06C153.789 200.733 148.438 204.763 148.577 205.009Z" fill="#F2F0FB"/>
<path d="M152.155 28.7188H36.7266V144.158H152.155V28.7188Z" fill="#FBFBFD"/>
<path d="M147.685 32.2969H39.4141V140.577H147.685V32.2969Z" fill="#F2F0FB"/>
<path d="M109.209 70.7773H77.8906V102.098H109.209V70.7773Z" fill="#F2F0FB"/>
<path d="M155.736 28.7188H151.262V143.263H155.736V28.7188Z" fill="#F2F0FB"/>
<path d="M458.179 179.952H342.75V295.391H458.179V179.952Z" fill="#FBFBFD"/>
<path d="M453.704 183.531H345.434V291.811H453.704V183.531Z" fill="#F2F0FB"/>
<path d="M416.123 222.011H384.805V253.331H416.123V222.011Z" fill="#F2F0FB"/>
<path d="M461.76 179.952H457.285V294.496H461.76V179.952Z" fill="#F2F0FB"/>
<path d="M394.649 27.741L379.438 27.8232L379.84 102.097L395.051 102.014L394.649 27.741Z" fill="#F2F0FB"/>
<path d="M289.062 27.6153L250.586 27.8232L250.809 68.9869L289.285 68.7789L289.062 27.6153Z" fill="#FBFBFD"/>
<path d="M327.538 27.6153L289.062 27.8232L289.285 68.9869L327.761 68.7789L327.538 27.6153Z" fill="#FBFBFD"/>
<path d="M249.69 39.4562C275.317 39.5376 301.861 39.6272 327.537 39.4562C327.46 39.486 327.647 39.4562 327.537 39.4562C327.615 39.4264 327.537 38.6034 327.537 38.5613C327.537 38.5192 327.615 38.5911 327.537 38.5613C327.46 38.5315 327.647 38.5613 327.537 38.5613C301.907 38.5084 275.31 38.3781 249.69 38.5613C249.597 38.5613 249.756 38.5361 249.69 38.5613C249.625 38.5865 249.69 39.4206 249.69 39.4562C249.69 39.4918 249.625 39.431 249.69 39.4562C249.756 39.4814 249.597 39.4562 249.69 39.4562Z" fill="#F2F0FB"/>
<path d="M296.219 67.7155L226.426 68.0928L226.605 101.203L296.398 100.825L296.219 67.7155Z" fill="#FBFBFD"/>
<path d="M366.012 67.7155L296.219 68.0928L296.398 101.203L366.191 100.825L366.012 67.7155Z" fill="#FBFBFD"/>
<path d="M225.531 77.9358C272.056 78.3353 319.522 77.5602 366.015 77.041C365.937 77.0994 366.124 77.041 366.015 77.041C366.015 77.1236 366.092 76.9825 366.015 77.041C366.015 76.9583 366.092 76.2045 366.015 76.1461C365.937 76.0877 366.124 76.1461 366.015 76.1461C319.49 75.9624 272.024 76.2741 225.531 77.041C225.448 77.0519 225.586 76.992 225.531 77.041C225.477 77.0899 225.531 76.977 225.531 77.041C225.531 77.1049 225.477 77.8869 225.531 77.9358C225.586 77.9848 225.448 77.9249 225.531 77.9358Z" fill="#F2F0FB"/>
<path d="M471.6 102.098H199.582V113.731H471.6V102.098Z" fill="#F2F0FB"/>
<path d="M255.058 107.468H244.32V148.632H255.058V107.468Z" fill="#F2F0FB"/>
<path d="M419.702 107.468H408.965V148.632H419.702V107.468Z" fill="#F2F0FB"/>
<path d="M408.965 -0.000193197L393.754 0.0820312L394.306 102.096L409.518 102.014L408.965 -0.000193197Z" fill="#FBFBFD"/>
<path d="M432.229 18.7492L408.965 18.875L409.411 101.202L432.675 101.076L432.229 18.7492Z" fill="#FBFBFD"/>
<path d="M432.23 34.9828C432.23 35.1813 427.025 35.8776 420.597 35.8776C414.169 35.8776 408.965 35.1813 408.965 34.9828C408.965 34.7842 414.169 34.9828 420.597 34.9828C427.025 34.9828 432.23 34.7842 432.23 34.9828Z" fill="#F2F0FB"/>
<path d="M432.23 32.2982C432.23 32.4967 427.025 32.2982 420.597 32.2982C414.169 32.2982 408.965 32.4967 408.965 32.2982C408.965 32.0997 414.169 31.4033 420.597 31.4033C427.025 31.4033 432.23 32.0997 432.23 32.2982Z" fill="#F2F0FB"/>
<path d="M432.23 89.5697C432.23 89.7682 427.025 89.5697 420.597 89.5697C414.169 89.5697 408.965 89.7682 408.965 89.5697C408.965 89.3712 414.169 88.6748 420.597 88.6748C427.025 88.6748 432.23 89.3995 432.23 89.5697Z" fill="#F2F0FB"/>
<path d="M432.23 85.095C432.23 85.2957 427.025 85.9899 420.597 85.9899C414.169 85.9899 408.965 85.2957 408.965 85.095C408.965 84.8944 414.169 85.095 420.597 85.095C427.025 85.095 432.23 84.904 432.23 85.095Z" fill="#F2F0FB"/>
<path d="M420.597 78.8308C420.396 78.8308 420.597 70.4181 420.597 60.0385C420.597 49.6588 420.396 41.2461 420.597 41.2461C420.798 41.2461 421.492 49.6588 421.492 60.0385C421.492 70.4181 420.788 78.8308 420.597 78.8308Z" fill="#F2F0FB"/>
<path d="M457.285 39.457H432.23V102.098H457.285V39.457Z" fill="#FBFBFD"/>
<path d="M404.493 17.98C404.483 18.7249 404.018 19.1549 403.598 19.7697C403.177 20.3846 402.499 21.2808 401.808 21.5595C401.117 21.8381 400.748 21.7105 400.018 21.5595C399.289 21.4084 397.857 21.1946 397.334 20.6646C396.81 20.1346 396.581 18.7113 396.439 17.98C396.297 17.2487 396.152 16.8776 396.439 16.1902C396.726 15.5029 397.608 14.8134 398.228 14.4005C398.849 13.9875 399.273 13.5057 400.018 13.5056C400.518 13.5056 401.347 13.3129 401.808 13.5056C402.269 13.6983 403.246 14.0448 403.598 14.4005C403.949 14.7562 404.306 15.7265 404.493 16.1902C404.68 16.6539 404.499 17.48 404.493 17.98Z" fill="#F2F0FB"/>
<path d="M402.7 29.6123H400.016V90.4638H402.7V29.6123Z" fill="#F2F0FB"/>
<path d="M366.909 272.125C371.82 271.248 376.564 269.026 380.331 265.861C384.098 262.695 385.914 258.802 387.489 254.227C389.065 249.653 389.438 244.621 388.384 239.909C387.33 235.197 385.51 230.921 382.12 227.381C381.181 226.238 379.995 225.098 378.541 224.696C375.439 224.087 373.223 226.681 371.383 229.171L357.961 247.068" fill="#3A3133"/>
<path d="M363.329 253.333C374.08 245.578 380.938 230.855 382.119 217.538C383.301 204.22 374.321 179.523 368.697 167.425C361.85 152.695 359.287 173.796 354.381 176.374C351.458 177.903 349.381 181.112 349.012 184.428C348.642 187.744 349.168 191.009 349.907 194.271C354.127 214.103 359.108 233.487 363.329 253.333Z" fill="#3A3133"/>
<path d="M309.642 133.42C288.339 126.297 274.117 134.915 267.587 142.368C261.057 149.822 257.988 160.179 256.849 170.11C255.71 180.04 255.645 189.71 255.06 199.64C254.631 205.394 254.673 210.886 255.06 216.643C255.373 225.036 258.658 239.788 264.008 246.174C269.148 252.303 274.59 257.32 281.904 260.492C284.516 261.634 287.449 262.743 289.957 261.387C291.785 260.415 292.669 258.824 293.536 256.912C309.258 222.232 320.535 185.586 325.749 147.738" fill="#3A3133"/>
<path d="M338.276 153.107L301.589 145.053L291.746 147.737C271.559 151.313 260.403 176.082 263.113 192.481C266.12 210.7 271.36 232.402 276.535 245.279C287.021 271.223 309.642 269.44 309.642 269.44C309.642 269.44 310.924 277.408 312.327 286.443C312.924 290.312 313.839 293.858 315.906 297.181C317.972 300.505 320.755 302.992 323.959 305.235C327.163 307.479 330.87 308.907 334.696 309.71C338.523 310.512 342.495 310.477 346.329 309.71C353.738 308.226 359.957 304.322 364.225 298.076C368.493 291.831 370.894 284.055 369.594 276.599L349.013 160.266C348.51 157.884 347.41 155.418 345.434 154.001C343.458 152.585 340.688 152.814 338.276 153.107Z" fill="#FFBE9D"/>
<path d="M276.535 210.379C276.729 211.313 277.571 211.644 278.324 212.168C279.077 212.693 280.125 213.247 281.009 213.063C281.445 212.995 281.527 212.412 281.904 212.168C282.281 211.925 282.541 211.653 282.799 211.273C283.057 210.893 283.595 210.835 283.694 210.379C283.792 209.922 283.77 209.05 283.694 208.589C283.497 207.658 282.654 207.323 281.904 206.799C281.154 206.275 280.101 205.727 279.219 205.904C278.783 205.972 278.702 206.556 278.324 206.799C277.947 207.042 277.688 207.314 277.429 207.694C277.171 208.074 276.634 208.132 276.535 208.589C276.435 209.046 276.459 209.916 276.535 210.379Z" fill="#3A3133"/>
<path d="M272.06 199.64C272.573 199.962 274.773 197.726 278.323 196.956C281.874 196.186 285.194 196.558 285.482 196.061C285.636 195.837 285.037 195.712 283.692 195.166C281.894 194.488 280.206 193.847 278.323 194.271C276.459 194.677 274.212 196.483 272.955 197.851C272.082 198.903 271.814 199.504 272.06 199.64Z" fill="#3A3133"/>
<path d="M299.8 224.697C299.8 224.484 297.24 225.198 293.536 225.592C292.595 225.709 292.043 225.314 291.746 224.697C291.457 223.734 291.457 222.975 291.746 222.012C292.094 219.511 292.263 216.715 292.641 213.958C294.104 202.773 294.871 193.429 294.431 193.376C293.991 193.323 292.315 202.773 290.851 213.958C290.51 216.718 290.257 218.613 289.957 221.117C289.844 222.277 290.074 224.283 290.851 225.592C291.055 225.901 290.538 226.302 290.851 226.487C291.165 226.671 292.281 226.465 292.641 226.487C293.177 226.509 293.012 226.608 293.536 226.487C297.189 225.784 299.831 224.91 299.8 224.697Z" fill="#3A3133"/>
<path d="M307.852 269.44C320.638 266.757 332.41 260.391 341.854 251.543C341.854 251.543 336.389 272.066 308.746 275.705L307.852 269.44Z" fill="#EB996E"/>
<path d="M303.38 232.751C303.808 231.713 305.17 230.755 306.064 230.067C306.959 229.378 307.627 228.432 308.749 228.277C309.537 228.119 310.658 228.065 311.433 228.277C312.208 228.488 312.628 229.532 313.223 230.067C313.831 230.658 314.819 231.034 315.012 231.856C315.206 232.678 315.295 233.745 315.012 234.541C314.635 235.381 314.014 235.849 313.223 236.331C312.432 236.812 311.466 237.271 310.538 237.226C308.741 237.065 306.703 236.379 305.17 235.436C304.704 235.237 303.717 234.917 303.38 234.541C303.253 234.207 303.368 234.003 303.38 233.646C303.392 233.289 303.231 233.076 303.38 232.751Z" fill="#EB996E"/>
<path d="M311.434 224.697C310.838 224.796 311.499 228.444 308.75 231.856C306 235.269 301.497 236.729 301.591 237.225C301.591 237.473 302.478 237.563 304.276 237.225C306.604 236.744 309.08 235.434 310.539 233.646C311.94 231.929 312.583 229.54 312.329 227.382C312.099 225.775 311.737 224.618 311.434 224.697Z" fill="#3A3133"/>
<path d="M270.27 188.902C271.079 189.488 273.576 187.753 276.534 187.113C279.492 186.473 282.419 186.188 282.797 185.323C282.961 184.908 282.287 184.888 281.008 184.428C279.324 183.916 277.362 183.132 275.639 183.533C273.916 183.934 272.341 185.039 271.165 186.218C270.356 187.164 269.902 188.605 270.27 188.902Z" fill="#3A3133"/>
<path d="M316.803 202.325C316.984 203.234 316.409 204.23 315.908 205.009C315.406 205.788 315.018 206.591 314.118 206.799C313.681 206.921 312.778 206.857 312.328 206.799C311.879 206.741 311.825 206.133 311.433 205.904C311.042 205.675 310.81 205.373 310.539 205.009C310.267 204.645 309.752 204.556 309.644 204.114C309.462 203.205 310.037 202.209 310.539 201.43C311.04 200.651 311.428 199.847 312.328 199.64C312.765 199.518 313.669 199.582 314.118 199.64C314.567 199.698 314.622 200.305 315.013 200.535C315.404 200.764 315.636 201.065 315.908 201.43C316.179 201.794 316.694 201.883 316.803 202.325Z" fill="#3A3133"/>
<path d="M321.277 190.691C320.953 191.223 317.675 189.983 314.119 190.691C310.563 191.4 308.321 193.751 307.855 193.376C307.632 193.22 307.737 191.733 308.75 190.691C310.09 189.291 312.241 188.363 314.119 188.007C315.971 187.629 317.781 188.07 319.488 188.902C320.734 189.506 321.439 190.441 321.277 190.691Z" fill="#3A3133"/>
<path d="M317.695 179.058C317.234 179.961 314.441 180.337 311.432 180.848C308.423 181.358 305.88 182.449 305.168 181.742C304.837 181.389 305.12 180 306.063 179.058C307.341 177.896 308.814 176.644 310.537 176.373C312.26 176.102 314.32 176.556 315.906 177.268C317.119 177.886 317.856 178.626 317.695 179.058Z" fill="#3A3133"/>
<path d="M303.379 141.474C311.314 136.422 324.576 135.356 332.908 139.684C341.24 144.013 348.37 152.238 351.699 161.161C355.027 170.085 355.189 183.911 354.383 193.377C337.373 177.774 318.202 159.303 301.59 143.264L303.379 141.474Z" fill="#3A3133"/>
<path d="M294.431 134.314C246.395 136.099 263.113 206.799 263.113 206.799C263.113 179.621 295.325 145.948 295.325 145.948L302.484 143.263L294.431 134.314Z" fill="#3A3133"/>
<path d="M351.699 206.8C351.232 204.777 352.429 199.517 354.383 198.746C359.584 196.68 369.022 194.209 372.279 207.695C376.731 226.135 357.219 227.011 357.067 226.487C356.915 225.963 353.316 213.767 351.699 206.8Z" fill="#FFBE9D"/>
<path d="M358.856 218.432C358.929 218.35 359.172 218.308 359.751 218.432C360.567 218.567 361.749 218.892 362.436 218.432C364.154 217.295 364.908 213.604 364.225 210.379C363.909 208.84 363.386 207.156 362.436 205.904C362.135 205.387 361.152 205.328 360.646 205.009C360.14 204.691 360.348 204.162 359.751 204.114C359.371 204.105 358.259 203.878 357.961 204.114C357.664 204.351 358.037 204.637 357.961 205.009C357.837 205.557 358.034 206.747 357.961 206.799C357.889 206.851 357.098 205.774 357.067 205.009C357.057 204.545 357.671 204.478 357.961 204.114C358.364 203.624 358.225 203.285 358.856 203.22C359.623 203.194 360.858 203.765 361.541 204.114C362.223 204.464 362.904 204.373 363.331 205.009C364.452 206.372 365.655 208.652 366.015 210.379C366.76 213.996 365.731 217.068 363.331 218.432C362.886 218.685 362.052 219.293 361.541 219.327C361.03 219.361 360.226 219.519 359.751 219.327C359.079 219.059 358.805 218.474 358.856 218.432Z" fill="#EB996E"/>
<path d="M366.014 158.476C358.985 146.663 347.279 137.293 334.696 131.63C327.945 128.597 320.623 126.71 313.221 127.156C305.818 127.601 298.275 130.7 294.43 136.999L293.535 138.789C305.018 155.417 313.024 170.36 326.643 185.323C331.652 190.826 337.832 211.36 340.065 218.433C347.713 242.568 362.435 250.648 362.435 250.648C391.863 245.442 373.042 170.289 366.014 158.476Z" fill="#3A3133"/>
<path d="M377.649 266.756C377.559 266.692 378.641 265.557 379.438 263.177C379.903 261.792 380.135 260.158 380.333 258.702C380.529 256.929 380.529 255.106 380.333 253.333C379.929 250.073 379.262 247.183 377.649 244.384C376.393 242.249 374.884 240.879 374.964 240.805C375.237 241.033 375.642 241.411 375.859 241.7C376.502 242.441 377.125 243.541 377.649 244.384C380.406 248.742 381.927 253.492 381.228 258.702C381.014 260.193 379.953 261.772 379.438 263.177C379.248 263.716 379.686 264.454 379.438 264.966C379.268 265.362 378.765 265.496 378.543 265.861C378.378 266.168 377.88 266.503 377.649 266.756Z" fill="#F2F0FB"/>
<path d="M379.436 226.486C379.401 226.384 379.436 226.594 379.436 226.486V225.591C379.436 225.168 379.531 224.406 379.436 223.802L378.541 221.117C377.675 216.7 376.011 212.648 374.067 208.589C371.158 202.581 367.764 197.468 363.33 192.481C357.845 186.418 352.002 180.344 345.434 175.478C338.514 170.181 330.98 165.6 324.854 161.16C319.416 157.281 314.644 153.061 309.642 148.632C306.278 145.621 302.719 142.233 299.799 138.789C298.741 137.56 298.496 136.782 298.01 136.104L297.115 135.209C297.048 135.122 297.167 135.306 297.115 135.209C297.046 135.12 297.201 135.282 297.115 135.209C297.263 135.4 297.756 135.807 298.01 136.104C298.528 136.771 299.657 137.581 300.694 138.789C303.66 142.169 306.267 145.662 309.642 148.632C314.68 153.011 320.298 157.309 325.748 161.16C331.864 165.579 338.493 170.192 345.434 175.478C352.025 180.366 357.841 185.483 363.33 191.586C367.772 196.622 372.084 202.519 374.962 208.589C376.875 212.691 377.75 216.66 378.541 221.117C378.658 221.912 379.352 223.177 379.436 223.802C379.521 224.427 379.405 225.178 379.436 225.591C379.468 226.005 379.415 226.232 379.436 226.486C379.455 226.595 379.448 226.377 379.436 226.486Z" fill="#F2F0FB"/>
<path d="M366.911 167.425C366.48 166.541 365.715 165.526 365.122 164.741C364.36 163.844 363.418 163.602 362.437 162.951C361.118 162.088 360.342 160.799 358.858 160.266C355.619 158.995 350.751 158 346.331 156.687C341.911 155.374 337.004 154.135 332.014 152.212C323.473 148.933 315.78 145.139 307.854 140.579C304.816 138.814 302.331 137.176 300.696 136.105L298.907 135.21C298.68 135.073 298.206 134.493 298.012 134.315C298.254 134.422 298.685 134.17 298.907 134.315L300.696 136.105C302.373 137.155 304.806 137.951 307.854 139.684C315.814 144.116 324.398 148.056 332.909 151.317C337.899 153.24 342.784 155.374 347.226 156.687C351.667 158 355.577 158.932 358.858 160.266C360.347 160.833 362.018 161.157 363.332 162.056C364.322 162.742 364.377 163.797 365.122 164.741C365.387 165.072 365.804 165.268 366.016 165.635C366.185 165.906 366.792 166.235 366.911 166.53C367.021 166.773 366.853 167.165 366.911 167.425Z" fill="#3A3133"/>
<path d="M284.587 259.598H283.692L282.798 258.703C281.473 258.151 280.473 257.613 279.218 256.913C277.246 255.792 274.727 254.757 272.955 253.334C270.588 251.453 268.627 249.401 266.691 247.069C261.617 241.005 257.689 233.342 255.954 225.592C253.941 216.068 254.923 206.269 257.743 196.956C259.154 192.143 260.646 187.89 263.112 183.533C265.448 179.512 268.295 175.55 271.165 171.9C273.869 168.394 276.734 165.108 279.218 162.056C281.703 159.004 284.404 155.8 286.377 153.108C289.528 148.87 292.282 144.522 294.43 139.685C294.785 138.819 295.085 138.581 295.325 137.895C295.565 137.208 295.158 136.58 295.325 136.105L296.22 134.315C296.159 134.43 296.256 134.191 296.22 134.315C296.204 134.445 296.267 134.193 296.22 134.315V136.105C296.073 136.591 295.534 137.208 295.325 137.895C295.116 138.581 294.774 138.808 294.43 139.685C292.342 144.583 289.525 149.723 286.377 154.003C284.414 156.727 281.724 158.994 279.218 162.056C276.713 165.119 274.753 168.415 272.06 171.9C269.218 175.542 266.329 179.532 264.007 183.533C261.568 187.87 259.139 193.066 257.743 197.851C254.98 207.07 254.866 216.17 256.848 225.592C258.542 233.278 262.592 241.03 267.586 247.069C270.938 251.144 274.698 254.232 279.218 256.913C280.847 257.821 281.889 258.323 282.798 258.703L283.692 259.598C283.784 259.65 284.505 259.53 284.587 259.598Z" fill="#3A3133"/>
<path d="M381.225 221.117C381.205 221.558 381.338 221.586 381.225 222.012C381.079 222.853 380.708 224.119 380.331 225.592C379.354 229.447 377.667 233.686 375.857 237.225C374.839 239.165 373.597 240.846 372.277 242.594C371.192 244.012 369.979 244.931 368.698 246.174C367.845 247.019 366.956 248.113 366.014 248.858C365.694 249.153 365.496 249.537 365.119 249.753C365.056 249.68 366.601 248.351 368.698 246.174C369.919 244.9 371.215 244.003 372.277 242.594C373.553 240.848 374.85 239.14 375.857 237.225C377.646 233.719 378.36 229.38 379.436 225.592C379.824 224.214 380.974 222.937 381.225 222.012C381.305 221.582 381.054 221.519 381.225 221.117Z" fill="#3A3133"/>
<path d="M476.971 457.364L461.76 360.717C461.76 360.717 442.446 285.207 426.863 275.704C411.279 266.202 370.49 267.65 370.49 267.65L366.911 274.809C364.575 279.773 361.488 284.095 357.068 287.338C352.649 290.58 347.286 292.869 341.857 293.602C336.428 294.335 330.869 292.872 325.751 290.917C320.632 288.962 315.893 286.136 312.329 281.968L295.327 286.443C281.067 289.883 269.322 298.286 261.325 310.604C261.05 311.029 249.957 326.267 249.693 326.712C243.838 336.321 187.057 403.671 187.057 403.671C187.057 403.671 146.748 383.708 145.001 383.984C143.255 384.26 127.105 403.671 127.105 403.671C127.105 403.671 177.304 457.171 198.689 454.679C220.074 452.187 243.429 416.2 243.429 416.2L287.274 374.14C293.414 397.303 313.223 457.364 313.223 457.364H476.971Z" fill="#4C4763"/>
<g opacity="0.3">
<path d="M230.902 417.989C226.448 413.05 220.087 409.794 213.9 407.251C191.938 398.209 168.974 392.372 145.896 386.669C145.213 386.429 143.914 386.49 143.211 386.669C141.744 387.223 142.072 389.605 142.317 391.143V392.038L141.422 394.723C154.755 411.2 172.061 424.459 191.531 433.202C196.995 435.661 202.536 437.98 208.532 437.676C215.526 437.331 222.2 434.034 228.217 430.517C230.567 429.157 233.108 426.891 233.586 424.253C234.022 421.92 232.507 419.747 230.902 417.989Z" fill="#3A3133"/>
</g>
<path d="M277.431 328.502C277.501 328.733 277.414 329.156 277.431 329.397C277.496 329.926 277.323 330.35 277.431 331.187C277.539 332.023 278.131 333.559 278.326 334.766C278.52 335.973 278.929 336.799 279.221 338.346C280.366 344.647 282.137 353.955 284.589 363.402C287.042 372.849 289.297 381.336 290.853 387.564C291.631 390.677 292.264 392.943 292.643 394.723C292.815 395.559 293.44 395.993 293.537 396.512C293.604 396.743 293.533 397.167 293.537 397.407C293.442 397.185 293.586 396.748 293.537 396.512C293.408 396.004 292.859 395.538 292.643 394.723C292.21 392.975 291.685 390.677 290.853 387.564C289.157 381.315 287.139 372.765 284.589 363.402C282.04 354.04 279.374 344.679 278.326 338.346C278.056 336.768 278.477 335.995 278.326 334.766C278.175 333.538 277.485 332.076 277.431 331.187C277.377 330.297 277.474 329.926 277.431 329.397C277.4 329.169 277.414 328.732 277.431 328.502Z" fill="#3A3133"/>
<path d="M370.487 399.197C369.95 399.213 369.226 399.292 368.697 399.197C368.177 399.154 367.632 399.326 366.908 399.197C366.18 399.057 365.12 398.528 364.223 398.302C362.101 397.828 360.002 397.27 357.96 396.512C355.457 395.576 353.144 394.23 350.801 392.933C348.475 391.608 346.657 390.106 344.538 388.459C342.819 387.096 340.703 385.559 339.169 383.984C338.505 383.339 337.875 382.743 337.379 382.194C336.884 381.646 336.801 380.803 336.485 380.405C336.128 379.995 335.865 379.98 335.59 379.51C335.992 379.874 336.142 379.982 336.485 380.405C336.822 380.792 337.757 381.667 338.274 382.194C338.791 382.721 339.357 383.36 340.064 383.984C341.617 385.516 342.818 387.124 344.538 388.459C348.752 391.71 353.906 393.726 358.855 395.618C360.871 396.391 362.131 397.779 364.223 398.302C365.109 398.56 366.191 398.141 366.908 398.302C367.625 398.463 368.191 399.122 368.697 399.197C369.228 399.254 369.972 399.054 370.487 399.197Z" fill="#3A3133"/>
<path d="M371.385 262.281C373.865 259.355 372.825 256.251 371.385 255.122C369.01 253.231 365.434 254.314 363.332 256.017C356.775 261.243 349.456 266.203 342.752 271.23C336.047 276.257 326.411 279.662 318.592 276.599C316.827 275.91 315.957 274.458 314.118 273.915C313.223 273.581 311.488 273.795 310.539 273.915C309.591 274.035 308.637 274.263 307.855 274.81C306.394 276.022 306.236 280.976 307.855 281.969C310.85 289.713 318.596 295.902 326.645 298.076C334.695 300.25 344.091 298.747 351.7 295.392C359.308 292.037 365.826 286.356 371.385 280.179C373.385 278.205 374.949 275.672 375.859 273.02C376.9 269.289 371.385 262.281 371.385 262.281Z" fill="#4C4763"/>
<path d="M373.172 259.597C373.047 259.817 372.45 260.306 372.277 260.492C371.957 260.888 372 261.553 371.382 262.281C370.167 263.739 368.411 265.229 366.013 267.651C363.207 270.488 360.261 273.32 357.065 275.704C353.147 278.637 349.049 280.978 344.538 282.863C334.863 286.817 324.344 286.941 317.694 285.548C315.05 285.051 312.972 284.01 310.536 282.863C309.87 282.544 309.372 282.363 308.746 281.969C308.519 281.855 308.057 282.119 307.852 281.969C307.852 281.915 308.81 282.103 310.536 282.863C312.985 283.925 315.962 285.086 318.589 285.548C325.174 286.823 334.085 285.88 343.643 281.969C348.111 280.112 352.264 277.673 356.171 274.81C359.363 272.455 363.182 270.433 366.013 267.651C368.432 265.282 370.093 262.801 371.382 261.386L372.277 260.492C372.431 260.284 372.972 259.759 373.172 259.597Z" fill="#3A3133"/>
<path d="M370.491 273.915C370.417 274.074 370.597 274.67 370.491 274.81C370.251 275.133 369.94 275.225 369.596 275.705C368.834 276.749 367.498 278.384 366.017 280.179C358.279 289.504 348.512 297.856 338.278 304.341C336.317 305.572 334.941 306.42 333.804 307.025L332.909 307.92C332.596 308.077 332.025 307.941 332.014 307.92C331.865 308.006 332.142 307.805 332.014 307.92L333.804 307.025C334.91 306.357 336.348 304.719 338.278 303.446C348.358 296.811 358.143 288.431 366.017 279.284C367.529 277.531 368.793 276.686 369.596 275.705C369.982 275.245 370.24 274.228 370.491 273.915C370.741 273.602 370.47 273.905 370.491 273.915Z" fill="#3A3133"/>
<g opacity="0.3">
<path d="M403.594 344.61C405.2 359.554 406.442 373.526 408.068 388.459C408.281 390.514 408.152 392.891 407.174 394.723C405.739 397.403 402.097 398.583 399.12 399.198C391.084 400.839 382.997 402.925 374.961 404.567C387.313 404.323 400.19 403.01 412.542 402.777C413.499 402.777 416.122 402.777 416.122 402.777C416.122 402.777 415.429 398.34 415.227 397.408C411.124 378.873 407.687 363.145 403.594 344.61Z" fill="#3A3133"/>
</g>
<g opacity="0.3">
<path d="M288.167 375.931C278.33 363.403 274.14 346.116 277.43 330.292C279.568 347.25 284.481 362.216 288.167 375.931Z" fill="#3A3133"/>
</g>
<g opacity="0.3">
<path d="M319.485 378.615C322.817 375.674 325.321 372.118 326.644 367.877C327.966 363.636 327.713 358.765 326.644 354.454C325.497 350.091 323.106 346.341 322.17 341.925C321.181 337.279 321.949 332.349 322.17 327.607C322.391 322.866 322.116 317.253 319.485 313.289C318.034 311.103 315.685 309.559 315.011 307.025C314.338 304.492 315.738 302.316 315.906 299.866C316.038 297.599 315.031 294.787 314.117 292.707C313.202 290.628 312.298 288.775 310.538 287.338C309.485 286.508 307.968 285.571 306.958 286.443C306.672 286.768 306.203 287.823 306.064 288.233C305.924 288.643 306.034 288.696 306.064 289.128C304.791 311.205 304.026 334.543 311.432 355.349C314.262 363.307 317.57 371.131 318.591 379.51" fill="#3A3133"/>
</g>
<g opacity="0.3">
<path d="M342.749 283.759C332.014 288.159 319.105 287.913 307.852 281.969L308.746 283.759C313.928 288.979 322.015 291.451 329.327 290.918C336.638 290.386 343.358 287.072 349.907 283.759C354.581 281.567 359.487 279.164 363.329 275.705C367.195 272.232 369.477 267.395 370.487 262.282C362.816 271.06 353.472 279.36 342.749 283.759Z" fill="#3A3133"/>
</g>
<path d="M397.332 268.546C397.332 268.546 402.324 289.782 402.701 308.815C403.078 327.849 416.123 402.777 416.123 402.777L349.013 405.462L344.539 444.836C344.539 444.836 421.152 461.195 442.967 460.049C464.781 458.903 471.547 441.677 468.916 416.2C468.916 416.2 455.247 321.328 446.546 298.972C438.621 278.696 424.398 270.775 397.332 268.546Z" fill="#4C4763"/>
<path d="M447.441 298.972C447.441 298.972 447.186 299.168 447.441 299.867L449.23 303.446C450.131 306.294 451.4 310.458 452.81 315.974C455.619 326.997 458.815 342.549 462.652 362.508C464.571 372.492 466.828 383.844 468.916 395.618C469.934 401.505 470.498 407.24 471.6 413.516C471.728 414.299 472.41 415.396 472.495 416.2C472.58 417.005 472.432 418.07 472.495 418.885C472.559 419.7 472.485 419.859 472.495 420.675C472.506 421.49 472.495 422.533 472.495 423.359C472.547 426.689 472.083 429.908 471.6 433.203C471.431 434.029 471.77 435.062 471.6 435.887L470.706 437.677V438.572C470.451 439.387 470.076 440.441 469.811 441.257L468.916 443.046C467.521 446.278 466.02 449.488 463.547 451.995C460.951 454.487 457.952 456.949 454.599 458.259C451.157 459.496 447.513 459.84 443.862 460.049C436.494 460.271 428.912 459.202 421.492 458.259C414.071 457.317 405.87 456.014 398.227 454.68C379.612 451.503 361.616 448.468 344.539 444.836V443.941C346.044 430.505 347.635 417.733 349.013 405.462L417.018 401.882L416.123 402.777C412.158 383.454 409.39 367.875 407.175 357.139C406.115 351.77 405.063 347.459 404.49 344.61C404.204 343.213 403.734 341.73 403.596 341.031C403.458 340.332 403.596 340.136 403.596 340.136C403.596 340.136 403.437 340.343 403.596 341.031C403.755 341.719 404.183 343.234 404.49 344.61C405.084 347.448 406.03 350.886 407.175 356.244C409.422 367.001 412.979 383.464 417.018 402.777L349.013 406.357V405.462C347.646 417.744 346.929 431.4 345.434 444.836L344.539 443.941C361.606 447.573 379.634 451.514 398.227 454.68C405.88 455.993 413.997 457.285 421.492 458.259C428.986 459.233 436.6 459.355 443.862 459.154C447.457 458.958 450.312 458.572 453.704 457.364C456.989 456.082 460.106 454.432 462.652 451.995C465.076 449.529 467.535 446.215 468.916 443.046C469.234 442.263 469.482 442.04 469.811 441.257C470.139 440.473 469.567 439.387 469.811 438.572L470.706 437.677V435.887C470.865 435.062 471.441 434.029 471.6 433.203C472.08 429.936 471.635 426.661 471.6 423.359C471.6 422.544 471.653 422.374 471.6 421.569C471.547 420.765 471.653 419.679 471.6 418.885V416.2C471.516 415.406 471.728 415.194 471.6 414.41C470.54 408.142 469.081 401.505 468.021 395.618C465.965 383.855 463.655 373.387 461.758 363.403C457.963 343.433 454.65 327.007 451.915 315.974C450.569 310.458 449.205 306.305 448.336 303.446C447.859 302.038 447.663 300.608 447.441 299.867C447.218 299.125 447.441 298.972 447.441 298.972Z" fill="#3A3133"/>
<path d="M438.493 424.254C438.406 424.254 437.417 423.064 435.808 420.674C433.716 417.551 431.312 414.392 428.65 411.725C425.979 409.064 422.835 406.681 419.702 404.566C417.294 402.956 416.069 401.967 416.123 401.882C416.526 402.013 416.653 402.561 417.018 402.777C417.752 403.139 419.355 403.788 420.597 404.566C427.078 408.645 432.658 413.325 436.703 419.779C437.47 421.006 437.242 422.633 437.598 423.359C437.82 423.714 438.378 423.852 438.493 424.254Z" fill="#3A3133"/>
<path d="M416.123 280.18C415.694 280.626 414.818 280.692 414.333 281.075C413.772 281.534 413.946 282.346 413.439 282.864C412.848 283.46 411.44 283.835 410.754 284.654L409.86 286.444C409.469 286.88 409.355 286.849 408.965 287.339C408.173 288.307 407.061 289.78 406.28 290.918C402.995 296.083 400.956 301.859 400.017 307.921C399.837 309.325 400.048 310.245 400.017 311.5C400.017 312.128 400.017 312.705 400.017 313.29C400.017 313.875 400.017 314.548 400.017 315.08C400.017 316.144 399.964 317.808 400.017 318.659C400.055 319.372 399.9 319.745 400.017 320.449C400.13 321.064 399.989 321.614 400.017 322.239C399.823 321.646 400.104 321.067 400.017 320.449C399.865 319.747 399.188 319.375 399.122 318.659C398.994 317.699 399.148 316.048 399.122 315.08C399.122 314.537 399.175 313.928 399.122 313.29C399.069 312.652 399.059 312.139 399.122 311.5C399.122 310.234 399.858 309.336 400.017 307.921C400.91 301.769 402.904 296.121 406.28 290.918C407.093 289.748 407.247 288.296 408.07 287.339C408.471 286.849 409.469 285.975 409.86 285.549L410.754 284.654C411.472 283.845 411.9 283.449 412.544 282.864C413.073 282.357 413.745 281.509 414.333 281.075C414.8 280.679 415.599 280.493 416.123 280.18Z" fill="#3A3133"/>
<path d="M317.694 321.343C316.574 318.203 313.78 315.674 313.22 312.395C312.787 309.84 313.882 306.917 314.115 304.341C314.601 298.901 312.469 291.543 310.535 286.443C308.517 281.12 303.899 278.525 307.851 273.915V272.125C300.454 271.061 292.565 277.99 292.639 285.548C289.975 286.676 287.182 288.564 285.481 290.918C283.78 293.271 283.045 296.071 282.797 298.971C282.549 301.872 283.31 305.309 284.586 307.92C285.863 310.532 287.522 312.614 289.955 314.184C289.046 321.211 288.198 328.209 290.85 334.766C293.502 341.324 301.289 346.26 307.851 343.715C312.331 341.991 314.939 337.427 316.799 332.977C318.405 329.133 319.099 325.261 317.694 321.343Z" fill="#3A3133"/>
<path d="M306.958 285.548C302 283.55 296.534 283.984 291.746 286.443C292.345 285.882 292.798 285.839 293.536 285.548C295.285 284.745 297.014 283.846 298.904 283.759C300.792 283.664 303.368 284.013 305.168 284.653C305.927 284.871 306.318 285.044 306.958 285.548Z" fill="#3A3133"/>
<path d="M308.748 316.868C308.555 317.015 308.087 316.784 307.853 316.868C307.242 317.143 306.718 317.587 306.064 317.763C303.892 318.35 302.053 318.884 299.8 318.658C297.548 318.431 294.619 317.872 292.642 316.868C292.042 316.573 292.273 316.367 291.747 315.973C291.373 315.7 290.831 315.107 290.852 315.078C290.873 315.05 292.03 315.286 293.537 315.973C297.512 317.764 301.752 318.72 306.064 317.763C307.705 317.386 308.707 316.793 308.748 316.868Z" fill="#3A3133"/>
<path d="M313.223 312.394C313.127 312.448 312.346 310.511 310.539 307.92C309.442 306.427 308.22 304.805 306.96 303.445C305.397 301.796 303.358 300.401 301.591 298.971C299.805 297.569 298.181 296.542 296.222 295.392C294.608 294.47 292.563 293.44 290.853 292.707C287.928 291.465 286.347 291.014 286.379 290.917C286.844 290.96 287.727 290.768 288.169 290.917C288.599 291.024 288.462 291.598 289.064 291.812C289.666 292.026 291.017 292.396 291.748 292.707C293.499 293.389 294.586 293.575 296.222 294.497C298.228 295.631 300.676 297.547 302.486 298.971C304.274 300.412 305.404 301.758 306.96 303.445C308.217 304.838 309.476 306.375 310.539 307.92C311.012 308.573 311.1 309.164 311.434 309.71C311.767 310.256 312.124 311.103 312.329 311.499C312.567 311.904 313.069 311.951 313.223 312.394Z" fill="#3A3133"/>
<path d="M306.063 281.073C305.919 281.152 304.461 279.832 302.484 278.389C300.507 276.945 298.838 275.852 298.904 275.704C300.494 276.008 302.192 276.504 303.379 277.494C304.68 278.361 305.462 279.729 306.063 281.073Z" fill="#3A3133"/>
<path d="M313.221 320.449C313.221 320.522 311.753 320.933 309.642 322.238C306.905 323.984 304.839 326.287 302.483 328.503C300.146 330.735 298.074 333.03 296.22 335.662C294.791 337.678 293.62 339.293 293.535 339.241C293.643 338.897 294.24 338.654 294.43 338.346C294.739 337.73 294.653 336.706 295.325 335.662C297.109 332.942 299.22 330.754 301.588 328.503C303.958 326.246 306.804 323.897 309.642 322.238C310.708 321.612 311.686 320.741 312.326 320.449C312.645 320.272 312.861 320.521 313.221 320.449Z" fill="#F2F0FB"/>
<path d="M294.43 313.29C294.393 312.932 294.393 312.752 294.43 312.395C294.456 311.396 294.285 309.802 294.43 308.815C295.39 302.235 298.963 296.587 303.378 291.813C304.039 291.095 304.424 290.645 305.168 290.023C305.423 289.772 305.754 289.299 306.062 289.128C306.124 289.203 305.037 289.972 303.378 291.813C299.182 296.644 296.484 303.283 295.325 309.71C294.885 312.175 294.522 313.29 294.43 313.29Z" fill="#F2F0FB"/>
<path d="M309.642 337.451C309.175 336.628 309.116 335.635 308.747 334.766C306.697 330.71 303.584 327.539 299.799 324.923C298.35 323.869 297.071 323.207 297.114 323.133C298.041 323.432 299.005 323.475 299.799 324.028C301.783 325.273 303.638 326.75 305.168 328.502C306.7 330.25 307.806 332.658 308.747 334.766C309.178 335.618 309.478 336.514 309.642 337.451Z" fill="#3A3133"/>
<path d="M318.591 348.189C316.732 345.159 314.008 342.234 310.538 341.925L298.906 345.504C297.296 347.745 296.481 350.787 296.221 353.558C295.962 356.329 296.847 359.097 298.011 361.612C299.445 364.231 301.363 366.594 303.38 368.771C305.271 371.075 307.158 373.007 307.854 375.93C308.55 378.853 307.507 383.108 305.169 384.879C307.975 383.775 310.706 381.212 312.328 378.615C312.66 381.024 311.764 383.691 310.538 385.774C317.354 383.437 322.859 376.953 323.96 369.666C325.061 362.379 322.435 354.441 318.591 348.189Z" fill="#3A3133"/>
<path d="M317.694 338.346C317.546 337.904 317.133 337.773 316.799 337.451C316.466 337.129 315.453 336.684 315.01 336.556C313.651 336.259 312.485 337.422 311.431 338.346C309.52 339.979 307.598 341.334 305.167 341.926C302.736 342.517 299.549 342.5 297.114 341.926C296.622 342.238 295.601 342.304 295.324 342.82C295.047 343.337 295.316 344.023 295.324 344.61C295.495 345.61 296.365 346.62 297.114 347.295C298.812 348.871 301.075 349.92 303.377 349.979C305.663 350.025 308.411 349.936 310.536 349.085C312.723 348.38 314.351 346.321 315.905 344.61C316.674 343.742 317.469 343.069 317.694 341.926C317.919 340.782 318.077 339.446 317.694 338.346Z" fill="#3A3133"/>
<path d="M96.6797 315.08L102.943 354.454L160.21 409.936L208.529 434.993L286.377 413.516L288.166 404.567L246.111 375.931L198.687 334.767C198.687 334.767 183.509 290.001 178.106 280.18L96.6797 315.08Z" fill="#F2F0FB"/>
<path d="M96.6816 315.08C96.6816 315.08 97.5266 314.598 98.4712 314.185L102.05 312.395L118.157 306.131L178.108 280.18C180.146 284.089 181.736 288.396 183.477 292.708C185.218 297.02 187.137 301.544 188.846 306.131C192.263 315.313 196.053 324.667 199.583 334.767L247.008 375.931L289.063 403.672V404.567C288.957 405.108 289.169 405.764 289.063 406.357C288.607 408.794 287.719 411.111 287.273 413.516L209.426 434.993L160.212 409.936L102.945 354.454C100.897 341.9 99.5643 332.493 98.4712 325.818C97.9405 322.502 96.9575 319.481 96.6816 317.764C96.5542 316.917 96.7452 316.409 96.6816 315.975C96.6179 315.54 96.6816 315.08 96.6816 315.08V315.975C96.7559 316.43 97.4278 316.874 97.5764 317.764C97.8629 319.491 97.898 322.46 98.4712 325.818C99.5325 332.471 100.833 341.942 102.945 354.454C117.337 368.227 137.757 386.667 161.107 409.042L209.426 434.993L287.273 412.621V413.516C287.719 411.1 287.722 408.804 288.168 406.357C288.285 405.774 288.062 405.118 288.168 404.567H289.063L246.113 375.931L198.688 335.662C195.186 325.569 192.263 315.327 188.846 306.131C187.148 301.547 185.182 297.037 183.477 292.708C181.747 288.407 180.114 284.078 178.108 280.18V281.075L119.052 306.131L102.05 313.29L98.4712 315.08H96.6816Z" fill="#3A3133"/>
<path d="M198.686 334.766C198.463 334.929 198.041 334.645 197.792 334.766L196.002 336.556C194.166 337.534 191.27 338.459 187.949 340.135C181.317 343.488 172.325 348.073 162 352.664C151.675 357.255 142.138 361.715 135.156 364.297C131.675 365.588 128.182 366.326 126.208 366.982L124.418 367.877C124.16 367.976 123.795 367.823 123.523 367.877C123.771 367.749 124.157 367.971 124.418 367.877L126.208 366.982L135.156 363.402C142.085 360.727 151.632 357.244 162 352.664C172.367 348.083 181.274 343.394 187.949 340.135L196.002 336.556L197.792 334.766C198.052 334.628 198.403 334.85 198.686 334.766Z" fill="#3A3133"/>
<path d="M245.217 375.931C245.27 376.069 226.631 383.539 203.161 392.933C179.692 402.328 160.275 410.074 160.211 409.936C160.148 409.798 178.786 402.328 202.267 392.933C225.747 383.539 245.164 375.782 245.217 375.931Z" fill="#3A3133"/>
<path d="M110.103 361.613C110.103 361.613 113.826 360.158 114.577 358.033C115.328 355.909 115.181 353.421 114.577 352.664C113.972 351.907 103.103 347.6 102.049 347.295C100.996 346.99 91.7603 346.3 91.3118 351.769C91.1791 354.18 92.5188 357.028 93.9962 358.928C93.9962 358.928 90.417 365.31 90.417 366.982C90.417 368.654 92.3526 371.879 92.2066 373.246C92.0605 374.613 88.4791 377.66 89.5222 380.405C90.5653 383.15 92.2066 383.766 92.2066 385.774C92.2066 387.783 91.4556 389.039 92.2066 390.249C92.9576 391.458 97.3473 398.44 101.155 399.198C104.962 399.955 123.524 401.882 123.524 401.882L126.209 404.567C126.209 404.567 134.512 406.338 138.736 399.198C142.96 392.057 142.315 392.933 142.315 392.933L127.998 379.51C127.998 379.51 129.928 375.866 127.998 374.141C127.006 373.445 125.611 373.45 124.419 373.246C124.419 373.246 125.778 368.507 123.524 366.982C121.271 365.457 110.103 361.613 110.103 361.613Z" fill="#FFBE9D"/>
<path d="M94.8906 383.09C95.0369 383.015 95.623 383.117 95.7854 383.09C96.096 383.008 96.0901 383.212 96.6802 383.09C97.8811 382.825 99.875 382.491 102.049 382.195C107.726 381.423 113.342 380.799 119.05 381.3C119.161 381.437 119.863 382.04 119.945 382.195C120.152 382.638 119.945 383.497 119.945 383.985C119.945 384.473 120.152 384.437 119.945 384.88C119.561 385.714 118.934 387.066 118.155 387.564C116.713 388.392 115.261 388.824 113.681 389.354L105.628 392.039C105.552 393.6 104.962 395.409 103.839 396.513C103.546 396.801 103.292 397.188 102.944 397.408C102.695 397.551 102.954 397.428 102.944 397.408C103.378 397.078 103.459 396.903 103.839 396.513C104.852 395.407 105.579 393.528 105.628 392.039L112.787 388.459C114.323 387.921 115.857 387.488 117.261 386.67C117.959 386.219 118.716 385.634 119.05 384.88C119.224 384.507 119.05 384.395 119.05 383.985C119.05 383.575 119.224 382.568 119.05 382.195C118.983 382.071 119.134 382.309 119.05 382.195C113.373 381.703 107.709 381.54 102.049 382.195C99.8854 382.45 97.8811 382.886 96.6802 383.09C96.0705 383.232 95.5147 383.035 94.8906 383.09Z" fill="#EB996E"/>
<path d="M125.314 373.246C125.314 373.246 125.431 373.034 125.314 373.246C125.152 373.544 124.691 373.948 124.419 374.14C123.988 374.457 124.045 374.956 123.524 375.035C122.846 375.114 121.51 375.173 120.84 375.035C117.923 374.467 114.521 373.309 110.102 372.351C106.249 371.504 102.069 371.152 99.3649 370.561L95.7857 371.456C95.2912 371.695 94.5278 372.227 93.9961 372.351C94.4573 372.049 95.2833 371.674 95.7857 371.456L99.3649 369.666C102.09 370.223 106.238 370.609 110.102 371.456C114.51 372.414 117.955 373.472 120.84 374.14C121.932 374.491 123.402 374.684 124.419 374.14C124.783 373.9 125.059 373.609 125.314 373.246Z" fill="#EB996E"/>
<path d="M128.895 378.615C128.895 378.615 128.99 378.408 128.895 378.615C128.75 378.917 128.229 379.271 128.001 379.51C127.111 380.352 126.517 381.241 125.316 381.3C121.503 381.575 117.501 381.502 113.684 381.3C111.445 381.213 109.324 381.453 107.42 381.3C105.723 381.137 103.74 381.058 102.051 381.3C100.915 381.337 99.4407 381.575 98.4723 382.195C97.8131 382.663 97.6716 383.133 97.5775 383.09C97.3892 383.275 97.4833 383.046 97.5775 383.09C97.7773 382.831 98.2203 382.399 98.4723 382.195C98.8743 381.864 99.7774 381.474 100.262 381.3C100.9 381.088 101.388 380.497 102.051 380.405C103.758 380.106 105.694 380.265 107.42 380.405C109.356 380.536 111.455 381.213 113.684 381.3C118.13 381.507 122.418 381.431 125.316 381.3C126.457 381.278 127.104 380.245 128.001 379.51C128.315 379.217 128.66 378.98 128.895 378.615Z" fill="#EB996E"/>
<path d="M130.683 387.563C129.123 387.005 127.832 386.199 126.209 385.774C123.477 385.185 120.84 385.015 120.84 384.879C122.571 384.646 124.512 384.517 126.209 384.879C127.906 385.24 129.319 386.671 130.683 387.563Z" fill="#EB996E"/>
<path d="M112.787 361.612C111.897 361.493 110.957 360.977 110.102 360.717C108.502 360.318 106.334 360.292 103.839 359.822C101.344 359.353 99.1646 359.117 97.575 358.928C96.6821 358.857 95.7556 358.255 94.8906 358.033C95.7887 357.956 96.6826 357.91 97.575 358.033C99.735 358.213 101.714 358.516 103.839 358.928C105.972 359.326 108.028 360.098 110.102 360.717C110.954 360.924 112.009 361.222 112.787 361.612Z" fill="#EB996E"/>
<path d="M337.379 409.935C337.379 409.935 320.099 395.25 316.799 394.722C313.498 394.193 308.224 393.643 306.956 394.722C305.688 395.801 273.848 403.671 273.848 403.671C272.126 404.704 270.951 406.217 270.269 408.145C270.028 408.922 269.922 410.096 270.269 410.83C270.617 411.563 271.316 412.336 272.059 412.619C274.113 413.415 276.195 413.176 278.322 412.619C277.97 413.523 278.188 414.34 278.322 415.304C278.457 416.268 278.633 417.223 279.217 417.989C281.239 420.599 288.165 418.884 288.165 418.884C288.165 418.884 285.646 426.009 291.744 427.832C291.744 427.832 289.45 429.427 291.744 432.307C294.039 435.186 296.187 437.989 300.692 437.676C305.198 437.363 314.114 437.676 314.114 437.676H330.221C331.606 437.002 333.209 436.274 334.695 435.886C336.214 435.627 344.537 437.676 344.537 437.676L347.222 410.83L337.379 409.935Z" fill="#FFBE9D"/>
<path d="M311.431 406.356C311.021 406.495 310.967 406.293 310.537 406.356L306.957 407.251C304.04 407.84 299.749 408.869 295.325 409.935C290.901 411.002 286.621 412.041 283.693 412.62C282.229 412.914 280.935 413.383 280.114 413.515C279.689 413.614 279.655 413.506 279.219 413.515C279.622 413.349 279.683 413.593 280.114 413.515L283.693 412.62L295.325 409.04C299.749 407.974 303.976 407.748 306.957 407.251C308.432 406.997 309.704 406.447 310.537 406.356C310.966 406.272 310.993 406.339 311.431 406.356Z" fill="#EB996E"/>
<path d="M310.538 416.2C309.455 416.445 308.067 417.03 306.959 417.095C304.927 417.322 302 417.555 298.906 417.989C295.811 418.423 293.758 418.471 291.747 418.884C290.675 419.158 289.267 419.647 288.168 419.779C289.193 419.35 290.658 419.108 291.747 418.884C294.347 418.243 296.251 417.458 298.906 417.095C302.031 416.66 304.906 416.334 306.959 416.2C308.062 416.073 309.43 416.128 310.538 416.2Z" fill="#EB996E"/>
<path d="M311.432 426.939C310.519 427.217 309.714 427.7 308.747 427.834C306.452 428.267 303.941 428.547 301.589 428.728C299.208 428.881 296.749 428.275 294.43 427.834C293.464 427.699 292.625 427.275 291.746 426.939C292.711 427.038 293.484 427.658 294.43 427.834C296.719 428.185 299.263 427.982 301.589 427.834C304.318 427.644 306.967 427.219 308.747 426.939C309.701 426.774 310.455 426.966 311.432 426.939Z" fill="#EB996E"/>
<path d="M493.076 456.468H0.0429688V477.05H493.076V456.468Z" fill="#3A3133"/>
<path d="M0.0423645 456.468H2.72676H9.88514H38.5187H144.105H493.971V477.945H0.0423645C0.0423645 470.828 -0.0105911 465.28 0.0423645 461.837C0.0953202 458.394 0.0423645 456.468 0.0423645 456.468C0.0423645 457.203 -0.0529557 462.963 0.0423645 477.05H493.971H493.076V456.468L493.971 457.363H144.105H38.5187L9.88514 456.468H2.72676H0.0423645Z" fill="#3A3133"/>
<path d="M104.734 457.363C104.734 457.363 104.893 457.232 104.734 457.363C104.576 457.495 104.083 457.995 103.839 458.258C103.118 458.988 102.074 459.563 101.155 460.048C99.6722 460.809 98.347 461.614 96.681 461.838C94.4805 462.128 92.6356 461.953 90.4174 461.838C87.7396 461.71 85.006 461.381 82.3643 460.943C79.3538 460.42 76.4717 460.2 73.4163 460.048C66.9634 459.835 59.8495 461.288 52.836 463.627C45.8224 465.967 38.5392 469.176 32.2556 470.786C29.2934 471.581 26.3651 472.252 23.3076 472.576C20.6313 472.84 17.9308 472.84 15.2545 472.576C11.3727 472.231 7.92513 470.808 4.5169 468.997C3.27272 468.345 1.98427 467.228 0.937707 466.312C0.865645 466.257 1.02035 466.351 0.937707 466.312L1.8325 467.207C2.66426 467.782 3.60891 468.54 4.5169 468.997C7.92517 470.709 11.4176 471.389 15.2545 471.681C17.8993 471.938 20.6628 471.938 23.3076 471.681C26.3407 471.345 29.318 470.688 32.2556 469.891C38.4863 468.261 44.8748 465.977 51.9412 463.627C59.0076 461.278 66.8577 458.9 73.4163 459.153C76.4908 459.317 79.3379 460.399 82.3643 460.943C84.9883 461.393 87.7567 461.681 90.4174 461.838C92.6084 461.972 94.5019 461.199 96.681 460.943C98.3175 460.751 99.6838 460.76 101.155 460.048C102.388 459.401 103.789 458.359 104.734 457.363Z" fill="#3A3133"/>
<path d="M50.1508 457.363C49.6886 457.787 48.8827 457.903 48.3612 458.258C46.9441 459.246 45.4421 460.166 43.8873 460.943C38.6943 463.501 33.623 465.27 27.7809 465.417C21.9204 465.625 15.2132 464.175 9.88495 461.838C8.26606 461.143 7.3829 460.499 6.30576 459.153C6.02592 458.788 5.57611 458.682 5.41097 458.258C5.30617 457.965 5.39001 457.37 5.41097 457.363C5.69335 457.892 5.94627 458.669 6.30576 459.153C7.42674 460.4 9.19803 461.19 10.7798 461.838C16.0667 464.011 21.1332 464.72 26.8861 464.522C32.6662 464.375 38.6857 463.352 43.8873 460.943C45.444 460.204 46.9097 459.171 48.3612 458.258C48.8723 457.893 49.5876 457.65 50.1508 457.363Z" fill="#3A3133"/>
<path d="M166.474 470.786C166.474 470.786 166.877 470.61 167.368 470.786C168.101 471.036 168.395 471.545 169.158 471.681C172.067 472.177 175.477 472.116 178.106 470.786C175.022 468.522 171.194 466.627 167.368 466.312C162.523 465.844 157.096 467.206 153.052 469.891C152.793 470.027 153.232 470.558 153.052 470.786C152.871 471.014 152.228 471.4 152.157 471.681C152.156 471.966 151.994 472.341 152.157 472.576C152.319 472.811 152.784 472.473 153.052 472.576C153.642 472.885 154.184 473.354 154.841 473.471L157.526 474.365C160.307 474.966 162.599 474.846 165.579 475.26C168.618 475.728 172.346 476.223 175.421 476.155C177.005 476.118 178.332 476.408 179.895 476.155C180.68 476.031 181.796 475.457 182.58 475.26C183.358 475.096 183.639 474.677 184.369 474.365C185.509 473.924 187.152 473.495 187.949 472.576C188.314 472.155 187.849 471.333 187.949 470.786C188.048 470.239 188.143 469.517 187.949 468.996C187.466 467.947 187.177 467.765 186.159 467.206C185.133 466.6 183.703 465.823 182.58 465.417C178.233 463.848 173.779 462.948 169.158 462.732C155.955 462.036 142.316 465.828 131.576 473.471C130.081 474.569 128.729 475.513 127.997 476.155L127.102 477.05C126.925 477.216 127.102 477.05 127.102 477.05L127.997 476.155C128.708 475.482 130.102 474.6 131.576 473.471C135.802 470.327 140.056 467.269 144.998 465.417C152.425 462.649 161.234 461.434 169.158 461.837C173.84 462.034 178.179 462.927 182.58 464.522C183.744 464.933 185.099 465.682 186.159 466.312C187.287 466.934 188.315 467.829 188.843 468.996C189.076 469.614 188.957 470.136 188.843 470.786C188.73 471.436 188.378 472.072 187.949 472.576C187.082 473.559 185.598 474.787 184.369 475.26C183.611 475.589 183.392 475.995 182.58 476.155C181.785 476.362 180.701 476.021 179.895 476.155C178.308 476.408 177.029 477.013 175.421 477.05C172.311 477.118 168.652 476.637 165.579 476.155C162.568 475.73 159.422 474.966 156.631 474.365H154.841C154.111 474.241 153.707 473.813 153.052 473.471C152.721 473.295 152.385 472.871 152.157 472.576C151.909 472.265 151.215 472.074 151.262 471.681C151.344 471.326 151.935 471.077 152.157 470.786C152.378 470.495 152.729 470.067 153.052 469.891C157.206 467.162 162.41 465.806 167.368 466.312C171.269 466.669 174.989 468.436 178.106 470.786C175.413 472.118 172.111 472.26 169.158 471.681C168.151 471.5 167.379 471.258 166.474 470.786Z" fill="#3A3133"/>
<path d="M230.005 457.363C230.227 457.677 230.808 457.884 230.9 458.258C231.217 459.265 231.013 460.787 230.9 461.838C230.745 464.479 229.284 467.937 226.426 470.786C225.116 472.167 223.548 473.336 221.952 474.366C220.626 475.193 218.956 475.656 217.478 476.156C216.466 476.483 214.948 476.88 213.899 477.051C213.523 477.137 213.388 477.075 213.004 477.051C213.004 476.947 215.022 477.05 217.478 476.156C218.901 475.606 219.777 474.304 221.057 473.471C222.599 472.438 224.254 471.242 225.531 469.892C228.328 467.115 229.747 464.364 230.005 461.838C230.148 460.463 230.373 458.695 230.005 457.363Z" fill="#3A3133"/>
<path d="M318.592 476.155C317.881 475.452 316.699 474.987 315.907 474.365C313.685 472.699 311.554 471.192 308.749 470.786C306.804 470.529 304.412 470.424 302.485 470.786C300.239 471.259 298.522 471.772 296.222 471.681C293.703 471.462 291.108 469.553 289.063 468.101C287.016 466.505 284.398 465.386 281.905 464.522C276.969 463.015 271.673 463.151 266.693 464.522C262.65 465.627 259.366 467.562 255.956 469.891C253.657 471.444 251.737 473.417 249.692 475.26L247.903 476.155C247.722 476.344 247.227 476.901 247.008 477.05C247.163 476.841 247.714 476.337 247.903 476.155C248.25 475.787 248.091 475.041 248.797 474.365C250.792 472.456 253.665 470.582 255.956 468.996C259.376 466.58 262.6 464.782 266.693 463.627C271.79 462.205 277.744 462.082 282.8 463.627C285.35 464.507 286.977 466.461 289.063 468.101C291.097 469.563 293.861 470.577 296.222 470.786C298.474 470.881 300.281 471.231 302.485 470.786C304.461 470.439 306.762 470.499 308.749 470.786C311.615 471.233 314.586 471.698 316.802 473.47C317.62 474.097 318.02 475.32 318.592 476.155Z" fill="#3A3133"/>
<path d="M397.332 457.363C397.175 457.611 396.639 458.044 396.437 458.258C395.909 458.922 396.135 459.439 395.542 460.048C393.365 462.311 390.096 464.539 387.489 466.312C383.617 468.997 380.277 470.891 375.857 472.576C373.244 473.6 370.55 474.662 367.803 475.261C364.851 475.944 360.994 476.108 357.961 476.156C352.096 476.118 346.382 474.766 340.96 472.576C336.554 470.855 332.277 469.036 328.432 466.312C325.853 464.502 323.444 462.316 321.274 460.048C320.48 459.27 320.76 458.694 320.379 458.258C320.181 458.038 319.653 457.606 319.484 457.363C319.725 457.544 320.191 458.025 320.379 458.258C320.792 458.663 321.354 459.27 322.169 460.048C324.384 462.249 326.735 463.656 329.327 465.417C333.167 468.075 337.477 470.898 341.854 472.576C347.214 474.71 352.176 475.215 357.961 475.261C360.952 475.217 363.99 475.012 366.909 474.366C369.629 473.781 372.372 473.58 374.962 472.576C379.352 470.924 383.612 468.025 387.489 465.417C390.095 463.668 392.425 462.247 394.647 460.048C395.462 459.301 396.024 458.663 396.437 458.258C396.63 458.03 397.096 457.549 397.332 457.363Z" fill="#3A3133"/>
<path d="M386.595 456.468C386.473 456.599 386.746 456.374 386.595 456.468C386.299 456.664 385.375 457.014 384.805 457.363C380.843 459.89 376.722 462.192 372.278 463.627C368.996 464.715 365.882 465.355 362.435 465.417C356.18 465.275 349.257 463.804 343.645 460.942C341.959 460.102 340.73 459.328 339.171 458.258C338.612 457.887 337.666 457.581 337.381 457.363C337.235 457.262 337.501 456.6 337.381 456.468C337.993 456.792 338.603 456.96 339.171 457.363C340.77 458.346 342.85 459.243 344.539 460.047C350.126 462.763 356.265 464.359 362.435 464.522C365.813 464.408 369.064 463.812 372.278 462.732C374.932 461.915 376.921 461.243 379.436 460.047C381.546 459.022 383.655 458.028 384.805 457.363C385.391 457.018 385.972 456.734 386.595 456.468Z" fill="#3A3133"/>
<path d="M436.705 459.153C436.515 459.179 436 459.179 435.81 459.153H434.915H433.126H432.231C431.236 459.153 429.912 459.153 428.652 459.153H426.862H424.178C422.706 459.275 421.334 459.793 419.704 460.048C416.196 460.751 413.218 461.53 409.861 462.732C406.52 463.98 403.134 465.504 400.018 467.207C398.631 468.042 396.709 469.066 395.544 469.891L393.755 470.786L392.86 471.681C391.865 472.394 390.916 473.765 390.175 474.366L389.281 475.261C388.995 475.546 388.64 475.016 388.386 475.261L386.596 477.05C386.463 477.178 386.752 476.948 386.596 477.05C386.466 477.18 386.691 476.895 386.596 477.05L388.386 475.261V474.366L390.175 473.471C390.895 472.819 390.98 472.425 391.965 471.681L393.755 470.786L395.544 468.996C396.709 468.141 397.726 467.168 399.123 466.312C405.34 462.764 412.609 460.479 419.704 459.153C421.355 458.918 422.664 458.35 424.178 458.258H426.862H428.652C429.784 458.2 431.099 458.2 432.231 458.258H433.126H434.02H435.81C436.051 458.304 436.499 459.023 436.705 459.153Z" fill="#3A3133"/>
<path d="M327.537 476.155C326.74 475.034 325.858 474.418 324.853 473.47C321.988 471.003 318.686 469.099 315.01 468.101C312.47 467.379 309.575 466.673 306.957 466.311C304.12 465.886 301.194 465.05 298.009 464.522C294.68 463.949 291.392 463.719 288.166 462.732C284.738 461.654 280.989 460.57 277.428 460.047C270.485 459.379 263.367 460.298 256.848 462.732C254.005 463.751 251.493 464.969 248.795 466.311C246.244 467.555 243.753 468.761 241.636 469.891C237.403 472.172 234.122 474.808 231.794 476.155L229.109 477.05L228.214 477.945C228.059 478.042 228.229 477.959 228.214 477.945L229.109 477.05C229.702 476.656 230.64 475.965 231.794 475.26C234.08 473.85 237.403 472.223 241.636 469.891C243.753 468.73 246.244 467.576 248.795 466.311C251.504 464.94 253.988 462.876 256.848 461.837C263.444 459.358 270.399 458.459 277.428 459.153C281.019 459.676 284.713 460.74 288.166 461.837C291.367 462.828 294.704 463.939 298.009 464.522C301.184 465.05 304.12 464.961 306.957 465.417C309.599 465.797 312.452 466.455 315.01 467.206C318.721 468.258 322.015 470.903 324.853 473.47C325.892 474.393 326.874 474.944 327.537 476.155Z" fill="#3A3133"/>
<path d="M216.582 457.363C216.631 457.805 216.674 457.823 216.582 458.258C216.402 459.461 216.157 460.715 215.687 461.838C214.164 465.641 211.074 469.404 207.634 471.681C204.083 473.78 200.848 475.838 196.896 477.051C195.385 477.524 194.179 477.714 193.317 477.945C192.878 478.087 191.987 477.906 191.527 477.945C191.936 477.735 191.975 477.161 192.422 477.051L196.001 476.156C199.869 474.849 204.12 472.849 207.634 470.786C210.967 468.556 213.189 465.486 214.792 461.838C215.42 460.319 216.253 458.971 216.582 457.363Z" fill="#3A3133"/>
<path d="M102.051 477.945C102.417 477.535 102.509 477.386 102.946 477.051C103.747 476.352 104.987 475.498 106.525 474.366C110.558 471.449 114.637 468.623 119.052 466.312C124.221 463.592 129.866 461.593 133.369 460.048C135.131 459.275 135.976 458.671 136.948 458.258C137.452 458.017 138.197 457.509 138.737 457.363C138.277 457.674 137.46 458.041 136.948 458.258L133.369 460.048C129.908 461.688 125.095 463.592 119.947 466.312C115.553 468.617 111.506 471.56 107.42 474.366C105.86 475.424 103.789 476.405 102.946 477.051C102.534 477.404 102.52 477.672 102.051 477.945Z" fill="#3A3133"/>
<path d="M125.312 457.364C125.312 457.426 123.783 457.229 121.733 457.364C118.853 457.642 116.254 458.763 113.68 460.048C110.365 461.567 106.873 464.469 102.942 467.207C100.888 468.67 98.925 469.622 96.6784 470.787C94.2202 471.999 91.2993 472.822 88.6253 473.471C83.4384 474.622 78.7337 475.224 73.4137 475.261C68.5165 475.406 63.6779 475.127 59.9917 475.261C57.0836 475.342 54.8099 475.7 51.9386 476.156C50.8763 476.332 49.7853 476.937 49.2542 477.051C48.9872 477.126 48.6363 477.029 48.3594 477.051C48.6129 476.945 48.9848 477.109 49.2542 477.051C49.7747 476.896 50.0346 476.363 51.0438 476.156C53.9126 475.597 57.0689 475.39 59.9917 475.261C63.6885 475.065 68.5484 475.426 73.4137 475.261C78.6912 475.19 83.4785 474.609 88.6253 473.471C91.2546 472.839 94.2602 471.079 96.6784 469.892C98.8875 468.737 100.906 467.737 102.942 466.312C106.873 463.605 110.248 461.546 113.68 460.048C116.31 458.775 118.802 457.557 121.733 457.364C122.53 457.327 123.624 457.279 124.417 457.364C124.707 457.396 125.038 457.266 125.312 457.364Z" fill="#3A3133"/>
<path d="M448.336 477.945C448.708 477.537 448.793 477.389 449.231 477.051C450.032 476.352 451.283 475.498 452.81 474.366C456.846 471.454 460.925 468.628 465.337 466.312C470.517 463.592 476.151 461.593 479.654 460.048C481.405 459.275 482.261 458.671 483.233 458.258C483.735 458.02 484.487 457.512 485.023 457.363C484.564 457.677 483.747 458.044 483.233 458.258L479.654 460.048C476.193 461.688 471.38 463.592 466.232 466.312C461.842 468.616 457.787 471.56 453.705 474.366C452.145 475.424 450.969 476.405 450.126 477.051C449.702 477.407 448.821 477.676 448.336 477.945Z" fill="#3A3133"/>
<path d="M471.601 457.364C471.601 457.426 470.061 457.229 468.022 457.364C465.139 457.642 462.547 458.763 459.969 460.048C456.665 461.567 453.151 464.469 449.231 467.207C447.177 468.67 445.214 469.622 442.968 470.787C440.509 471.999 437.588 472.822 434.914 473.471C429.727 474.622 425.023 475.223 419.703 475.261C414.806 475.406 409.967 475.127 406.281 475.261C403.376 475.342 401.095 475.701 398.228 476.156C397.218 476.332 396.074 476.937 395.543 477.051C395.276 477.125 394.925 477.029 394.648 477.051C394.901 476.942 395.273 477.107 395.543 477.051C396.064 476.896 396.313 476.363 397.333 476.156C400.202 475.596 403.358 475.389 406.281 475.261C409.978 475.065 414.827 475.426 419.703 475.261C424.977 475.19 429.771 474.61 434.914 473.471C437.545 472.842 440.551 471.082 442.968 469.892C445.178 468.739 447.197 467.739 449.231 466.312C453.151 463.605 456.548 461.546 459.969 460.048C462.603 458.777 465.088 457.559 468.022 457.364C468.819 457.327 469.913 457.279 470.706 457.364C471 457.397 471.323 457.267 471.601 457.364Z" fill="#3A3133"/>
<path d="M433.125 457.363C433.125 457.556 412.934 457.363 387.49 457.363C362.046 457.363 340.961 457.556 340.961 457.363C340.961 457.169 362.036 456.468 387.49 456.468C412.945 456.468 433.125 457.169 433.125 457.363Z" fill="#3A3133"/>
<path d="M191.519 176.881C217.592 172.499 234.661 147.441 230.279 121.366C225.897 95.2904 201.724 78.0717 175.651 82.454C149.578 86.8362 131.478 111.16 135.86 137.235C140.242 163.311 165.446 181.264 191.519 176.881Z" fill="#F2F0FB"/>
<path d="M230.901 165.635C230.439 165.713 229.56 165.501 229.111 165.635C227.917 166.062 227.174 167.267 226.427 168.319C225.916 169.031 225.699 170.135 225.532 171.004C225.343 172.003 225.155 172.748 225.532 173.689C225.909 174.797 226.399 175.686 227.321 176.373C228.244 177.06 229.763 177.249 230.901 177.268C232.038 177.287 233.537 177.03 234.48 176.373C235.423 175.716 235.859 174.785 236.269 173.689C236.672 172.76 236.417 172.01 236.269 171.004C236.121 170.129 235.869 169.046 235.375 168.319C234.663 167.24 233.872 166.098 232.69 165.635C231.847 165.327 230.89 165.688 230.901 165.635C231.024 165.621 231.672 165.621 231.795 165.635C231.651 165.597 231.945 165.639 231.795 165.635C231.996 165.659 232.502 165.56 232.69 165.635C233.752 165.986 234.638 166.56 235.375 167.424C236.111 168.289 236.961 169.871 237.164 171.004C237.345 172.081 236.691 172.686 236.269 173.689C235.813 174.793 235.428 176.574 234.48 177.268C233.478 178.064 232.164 178.182 230.901 178.163C229.637 178.144 228.3 178.094 227.321 177.268C226.395 176.538 225.055 174.813 224.637 173.689C224.245 172.677 224.426 172.071 224.637 171.004C224.832 170.086 224.969 169.058 225.532 168.319C226.335 167.239 227.844 166.011 229.111 165.635C229.306 165.573 229.804 165.665 230.006 165.635C229.859 165.621 230.153 165.621 230.006 165.635C230.222 165.582 230.901 165.613 230.901 165.635Z" fill="#3A3133"/>
<path d="M230.005 136.103C230.005 136.103 230.005 135.714 230.005 135.208C230.005 134.702 230.805 134.409 230.9 133.418C230.943 132.919 230.837 132.247 230.9 131.629C230.9 131.017 230.9 130.566 230.9 129.839C230.9 129.112 230.9 128.008 230.9 127.154C230.907 126.721 230.956 126.689 230.9 126.259C230.9 125.817 230.058 124.944 230.005 124.47C229.588 119.859 229.104 115.324 227.321 111.047C225.007 105.363 221.777 100.231 217.478 95.8337C216.884 95.2223 216.304 94.6554 215.689 94.044C215.042 93.4536 213.683 92.8235 213.004 92.2543L212.109 91.3594C211.777 91.0597 211.588 90.7123 211.215 90.4645L208.53 88.6748L207.635 87.7799H206.741L204.056 85.9901C203.186 85.5579 202.273 85.4959 201.372 85.0953C200.926 84.895 200.049 84.3901 199.582 84.2004C199.359 84.1055 199.816 84.2847 199.582 84.2004H198.687C196.756 83.5344 194.427 82.8188 192.424 82.4106C191.363 82.2209 190.779 81.6634 189.739 81.5158H186.16C185.63 81.463 185.806 81.5263 185.265 81.5158H183.476C182.415 81.5158 180.989 81.5158 179.897 81.5158C177.673 81.6576 175.817 81.9698 173.633 82.4106H171.844C171.557 82.4739 171.224 82.3368 170.949 82.4106H170.054L166.475 84.2004C165.414 84.5904 164.904 84.663 163.79 85.0953C163.26 85.3272 162.552 85.716 162.001 85.9901L160.211 86.885C158.102 87.9948 155.892 89.089 153.948 90.4645L151.263 92.2543L150.368 93.1491C150.146 93.3494 150.591 93.8332 150.368 94.044L148.579 94.9389L147.684 96.7286L146.789 97.6235L145 99.4132V100.308H144.105L142.315 103.888L140.526 107.467C135.731 116.637 133.397 126.812 135.157 136.998C135.411 138.242 135.797 139.344 136.052 140.577C136.306 141.811 136.618 142.966 136.946 144.157L137.841 145.052V145.947L138.736 147.736L139.631 149.526L140.526 151.316L141.42 153.106L142.315 154.001L144.105 157.58C145.541 159.474 146.9 161.263 148.579 162.949L149.474 163.844C149.877 164.266 150.828 164.36 151.263 164.739C152.165 165.477 153.035 166.728 153.948 167.424L156.632 169.213L157.527 170.108H158.422L159.316 171.003C161.266 172.076 163.503 172.886 165.58 173.688C166.641 174.078 168.162 174.203 169.159 174.583L170.054 175.478C170.574 175.625 171.334 175.362 171.844 175.478L175.423 176.372C176.483 176.552 177.11 176.256 178.107 176.372C180.136 176.585 182.331 177.326 184.371 177.267H185.265C185.022 177.331 185.52 177.267 185.265 177.267L187.055 176.372C188.031 176.256 188.785 176.531 189.739 176.372L193.319 175.478H194.213H196.003L198.687 174.583C199.123 174.456 199.17 173.877 199.582 173.688H200.477C201.294 173.34 202.366 172.288 203.161 171.898L205.846 171.003C211.276 168.08 215.339 164.105 219.268 159.37C219.703 158.853 220.654 158.054 221.057 157.58L221.952 156.685L222.847 154.895C223.017 154.642 223.593 154.254 223.742 154.001C223.89 153.748 223.604 153.359 223.742 153.106L225.531 150.421C226.019 149.493 226.023 148.601 226.426 147.736L227.321 145.947C227.509 145.552 228.093 145.471 228.216 145.052V143.262C228.428 142.566 228.951 141.178 229.111 140.577C229.27 139.977 229.004 140.168 229.111 139.683C229.323 138.713 229.889 137.515 230.005 136.998V136.103C230.005 136.103 230.143 136.492 230.005 136.998C229.867 137.504 230.196 138.702 230.005 139.683C229.899 140.178 229.238 139.987 229.111 140.577C228.983 141.168 229.323 142.556 229.111 143.262C228.898 143.968 228.46 144.24 228.216 145.052C228.093 145.474 227.509 146.443 227.321 146.842C227.151 147.253 227.501 147.294 227.321 147.736C226.929 148.611 226.019 149.472 225.531 150.421C225.043 151.37 224.283 152.083 223.742 153.106V154.001C223.593 154.264 223.017 154.642 222.847 154.895L221.952 156.685L221.057 158.475C220.644 158.992 220.597 158.885 220.163 159.37C216.233 164.139 211.295 168.059 205.846 171.003L203.161 172.793C202.366 173.162 201.315 173.319 200.477 173.688L199.582 174.583C199.167 174.774 199.127 174.458 198.687 174.583L196.003 175.478H194.213L193.319 176.372H189.739C188.774 176.541 188.041 177.151 187.055 177.267H186.16C185.906 177.267 185.52 177.257 185.265 177.267H184.371C182.314 177.335 180.154 177.482 178.107 177.267C177.046 177.151 175.589 176.541 174.528 176.372H171.844C171.324 176.256 170.574 175.625 170.054 175.478H168.264C167.204 175.14 166.641 174.11 165.58 173.688C163.482 172.879 161.287 172.083 159.316 171.003L157.527 170.108C157.272 169.971 157.771 170.256 157.527 170.108L156.632 169.213L153.948 167.424C153.025 166.728 152.175 166.382 151.263 165.634C150.818 165.244 149.887 164.276 149.474 163.844L148.579 162.949C146.88 161.252 144.662 159.491 143.21 157.58L141.42 154.895V154.001L140.526 153.106L139.631 151.316L138.736 149.526L137.841 147.736L136.946 145.947V145.052V144.157L136.052 140.577C135.808 139.344 135.411 138.252 135.157 136.998C133.42 126.744 134.797 115.794 139.631 106.572L141.42 103.888L143.21 100.308C143.39 100.055 143.914 99.6663 144.105 99.4132L145 98.5184L145.894 97.6235L146.789 95.8337L148.579 94.9389L149.474 93.1491C149.696 92.9277 150.146 93.3494 150.368 93.1491L151.263 92.2543L153.948 89.5696C155.911 88.1831 158.078 87.1028 160.211 85.9901L162.001 85.0953C162.52 84.8106 163.228 84.4429 163.79 84.2004C164.851 83.7682 165.329 83.6956 166.475 83.3055L170.054 82.4106H170.949C171.235 82.3368 171.557 81.579 171.844 81.5158H173.633C175.838 81.0749 177.652 80.7626 179.897 80.6209C180.957 80.5576 182.383 80.6209 183.476 80.6209H185.265C185.806 80.6209 185.609 80.5682 186.16 80.6209L189.739 81.5158C190.8 81.6634 191.437 81.326 192.424 81.5158C194.438 81.9298 196.746 82.6313 198.687 83.3055H199.582C199.826 83.3898 200.244 84.1055 200.477 84.2004H201.372C202.273 84.601 203.186 85.5474 204.056 85.9901L206.741 86.885L207.635 87.7799C208.038 88.0329 209.043 88.4112 209.425 88.6748L211.215 90.4645C211.59 90.7133 211.779 91.0539 212.109 91.3594L213.899 92.2543C214.588 92.8341 215.031 92.5588 215.689 93.1491L217.478 95.8337C221.833 100.284 224.995 105.285 227.321 111.047C229.094 115.346 230.508 119.84 230.9 124.47C230.9 124.955 230.858 125.806 230.9 126.259C230.956 126.693 230.907 126.717 230.9 127.154C230.9 127.998 230.9 129.101 230.9 129.839C230.9 130.577 230.9 131.007 230.9 131.629C230.9 132.251 230.953 132.912 230.9 133.418C230.783 134.409 230.953 134.692 230.9 135.208C230.847 135.725 230.005 136.103 230.005 136.103Z" fill="#3A3133"/>
<path d="M170.055 129.839C170.057 130.687 169.63 131.817 169.16 132.523C168.69 133.229 168.153 133.987 167.37 134.313C166.587 134.639 165.518 134.477 164.686 134.313C163.854 134.149 162.602 134.017 162.001 133.418C161.401 132.819 161.273 131.565 161.106 130.734C160.94 129.902 160.782 128.833 161.106 128.049C161.43 127.265 162.191 126.73 162.896 126.259C163.601 125.788 164.733 125.364 165.581 125.364C166.716 125.364 168.357 125.457 169.16 126.259C169.964 127.061 170.053 128.704 170.055 129.839Z" fill="#3A3133"/>
<path d="M186.161 129.839C186.162 130.687 185.735 131.817 185.266 132.523C184.796 133.229 184.259 133.987 183.476 134.313C182.693 134.639 181.623 134.477 180.791 134.313C179.959 134.149 178.707 134.017 178.107 133.418C177.506 132.819 177.378 131.565 177.212 130.734C177.046 129.902 176.888 128.833 177.212 128.049C177.536 127.265 178.297 126.73 179.002 126.259C179.707 125.788 180.838 125.364 181.686 125.364C182.821 125.364 184.462 125.457 185.266 126.259C186.069 127.061 186.158 128.704 186.161 129.839Z" fill="#3A3133"/>
<path d="M202.27 129.839C202.272 130.687 201.846 131.817 201.375 132.523C200.905 133.23 200.369 133.987 199.586 134.313C198.802 134.639 197.733 134.478 196.901 134.313C196.069 134.148 194.816 134.018 194.216 133.418C193.616 132.818 193.487 131.566 193.321 130.734C193.156 129.901 192.996 128.832 193.321 128.049C193.647 127.265 194.405 126.729 195.111 126.259C195.817 125.789 196.947 125.362 197.796 125.364C198.93 125.364 200.573 125.457 201.375 126.259C202.177 127.061 202.27 128.705 202.27 129.839Z" fill="#3A3133"/>
</svg>
