<svg width="240" height="240" viewBox="0 0 240 240" fill="none" xmlns="http://www.w3.org/2000/svg">
<path d="M120 45.6748C105.485 45.6946 91.5711 51.4693 81.3078 61.7326C71.0445 71.9959 65.2698 85.9103 65.25 100.425V213.675C65.2542 215.06 65.6418 216.417 66.3699 217.595C67.098 218.773 68.1381 219.727 69.375 220.35C85.0549 228.338 102.403 232.502 120 232.502C137.597 232.502 154.945 228.338 170.625 220.35C171.862 219.727 172.902 218.773 173.63 217.595C174.358 216.417 174.746 215.06 174.75 213.675V100.425C174.73 85.9103 168.955 71.9959 158.692 61.7326C148.429 51.4693 134.515 45.6946 120 45.6748Z" fill="#937C82"/>
<path d="M120.001 232.5C148.042 232.507 175.059 221.957 195.676 202.95C195.783 202.38 195.783 201.795 195.676 201.225C192.36 191.315 186.015 182.696 177.537 176.587C169.059 170.477 158.876 167.185 148.426 167.175H92.1756C81.7383 167.201 71.572 170.5 63.1089 176.609C54.6458 182.717 48.3123 191.327 45.0006 201.225C44.893 201.795 44.893 202.38 45.0006 202.95C65.4457 221.8 92.1921 232.338 120.001 232.5Z" fill="#4C4763"/>
<path d="M48.8256 205.425C52.161 195.527 58.5108 186.921 66.9846 180.815C75.4583 174.708 85.6309 171.407 96.0756 171.375H152.401C164.522 171.424 176.206 175.906 185.251 183.975C180.594 178.719 174.88 174.505 168.482 171.61C162.085 168.715 155.148 167.204 148.126 167.175H91.8756C81.4897 167.263 71.3903 170.591 62.987 176.696C54.5837 182.8 48.2958 191.375 45.0006 201.225C44.893 201.795 44.893 202.38 45.0006 202.95C46.3506 204.225 47.8506 205.35 49.2756 206.55C49.088 206.191 48.9373 205.814 48.8256 205.425Z" fill="#4C4763"/>
<path d="M140.25 118.725H99.75C97.7609 118.725 95.8532 119.515 94.4467 120.921C93.0402 122.328 92.25 124.235 92.25 126.225V174.75C92.2564 175.985 92.5678 177.2 93.1566 178.285C93.7454 179.371 94.5933 180.295 95.625 180.975L115.875 194.475C117.1 195.281 118.534 195.711 120 195.711C121.466 195.711 122.9 195.281 124.125 194.475L144.375 180.975C145.407 180.295 146.255 179.371 146.843 178.285C147.432 177.2 147.744 175.985 147.75 174.75V126.225C147.75 124.235 146.96 122.328 145.553 120.921C144.147 119.515 142.239 118.725 140.25 118.725Z" fill="#ECC5B4"/>
<path d="M161.25 95.7754H78.75C72.7826 95.7754 67.0597 98.1459 62.8401 102.365C58.6205 106.585 56.25 112.308 56.25 118.275C56.25 124.243 58.6205 129.966 62.8401 134.185C67.0597 138.405 72.7826 140.775 78.75 140.775H161.25C167.217 140.775 172.94 138.405 177.16 134.185C181.379 129.966 183.75 124.243 183.75 118.275C183.75 112.308 181.379 106.585 177.16 102.365C172.94 98.1459 167.217 95.7754 161.25 95.7754Z" fill="#ECC5B4"/>
<path d="M138.45 67.5H101.55C94.608 67.5 87.9502 70.2577 83.0415 75.1665C78.1327 80.0752 75.375 86.733 75.375 93.675V118.875C75.375 130.71 80.0766 142.061 88.4454 150.43C96.8142 158.798 108.165 163.5 120 163.5C131.835 163.5 143.186 158.798 151.555 150.43C159.923 142.061 164.625 130.71 164.625 118.875V93.45C164.566 86.547 161.782 79.947 156.879 75.0868C151.977 70.2266 145.353 67.4997 138.45 67.5Z" fill="#F4DAB7"/>
<path d="M174.001 94.9498H174.451C173.595 86.2218 170.649 77.8284 165.863 70.4799C161.077 63.1313 154.591 57.0437 146.954 52.7323C139.317 48.421 130.754 46.0126 121.989 45.711C113.224 45.4094 104.516 47.2235 96.6009 50.9998C96.034 52.9145 96.1942 54.9711 97.0509 56.7748C102.137 67.3663 109.701 76.5762 119.101 83.6248C130.535 92.1738 144.424 96.8033 158.701 96.8248C163.856 96.7861 168.989 96.157 174.001 94.9498Z" fill="#D6B5B0"/>
<path d="M142.5 50.7005C134.178 46.9276 125.042 45.3007 115.929 45.9685C106.816 46.6363 98.0154 49.5775 90.332 54.5233C82.6485 59.469 76.3271 66.2616 71.9455 74.2803C67.564 82.2989 65.262 91.2878 65.25 100.425V103.35C68.2036 103.802 71.1872 104.027 74.175 104.025C84.1409 104.014 93.9876 101.858 103.046 97.7044C112.105 93.5503 120.164 87.4952 126.675 79.9505C133.944 71.5326 139.339 61.664 142.5 51.0005V50.7005Z" fill="#D6B5B0"/>
</svg>
