<svg width="18" height="14" viewBox="0 0 18 14" fill="none" xmlns="http://www.w3.org/2000/svg">
<path fill-rule="evenodd" clip-rule="evenodd" d="M3.16797 2.00065H14.8346C15.1565 2.00065 15.4357 2.18312 15.5746 2.45027L9.46356 6.52427C9.18365 6.71088 8.81898 6.71088 8.53906 6.52427L2.42805 2.45026C2.56687 2.18312 2.84611 2.00065 3.16797 2.00065ZM2.33464 4.39107V11.1673C2.33464 11.6276 2.70773 12.0007 3.16797 12.0007H14.8346C15.2949 12.0007 15.668 11.6276 15.668 11.1673V4.39108L10.3881 7.91102C9.54832 8.47085 8.45431 8.47085 7.61456 7.91102L2.33464 4.39107ZM0.667969 2.83398C0.667969 1.45327 1.78726 0.333984 3.16797 0.333984H14.8346C16.2153 0.333984 17.3346 1.45327 17.3346 2.83398V11.1673C17.3346 12.548 16.2153 13.6673 14.8346 13.6673H3.16797C1.78726 13.6673 0.667969 12.548 0.667969 11.1673V2.83398Z" fill="#696969"/>
</svg>
