<svg width="152" height="188" viewBox="0 0 152 188" fill="none" xmlns="http://www.w3.org/2000/svg">
    <path d="M76.0006 187.5C104.042 187.507 131.059 176.957 151.676 157.95C151.783 157.38 151.783 156.795 151.676 156.225C148.36 146.315 142.015 137.696 133.537 131.587C125.059 125.477 114.876 122.185 104.426 122.175H48.1756C37.7383 122.201 27.572 125.5 19.1089 131.609C10.6458 137.717 4.31228 146.327 1.00061 156.225C0.893025 156.795 0.893025 157.38 1.00061 157.95C21.4457 176.8 48.1921 187.338 76.0006 187.5Z" fill="#4C4763"/>
    <path d="M4.82561 160.425C8.161 150.527 14.5108 141.921 22.9846 135.815C31.4583 129.708 41.6309 126.407 52.0756 126.375H108.401C120.522 126.424 132.206 130.906 141.251 138.975C136.594 133.719 130.88 129.505 124.482 126.61C118.085 123.715 111.148 122.204 104.126 122.175H47.8756C37.4897 122.263 27.3903 125.591 18.987 131.696C10.5837 137.8 4.29575 146.375 1.00061 156.225C0.893025 156.795 0.893025 157.38 1.00061 157.95C2.35061 159.225 3.85061 160.35 5.27561 161.55C5.08804 161.191 4.93727 160.814 4.82561 160.425Z" fill="#4C4763"/>
    <path d="M96.25 73.7246H55.75C53.7609 73.7246 51.8532 74.5148 50.4467 75.9213C49.0402 77.3278 48.25 79.2355 48.25 81.2246V129.75C48.2564 130.985 48.5678 132.2 49.1566 133.285C49.7454 134.371 50.5933 135.295 51.625 135.975L71.875 149.475C73.0996 150.281 74.5337 150.711 76 150.711C77.4663 150.711 78.9004 150.281 80.125 149.475L100.375 135.975C101.407 135.295 102.255 134.371 102.843 133.285C103.432 132.2 103.744 130.985 103.75 129.75V81.2246C103.75 79.2355 102.96 77.3278 101.553 75.9213C100.147 74.5148 98.2391 73.7246 96.25 73.7246Z" fill="#ECC5B4"/>
    <path d="M117.25 50.7754H34.75C28.7826 50.7754 23.0597 53.1459 18.8401 57.3655C14.6205 61.5851 12.25 67.308 12.25 73.2754C12.25 79.2428 14.6205 84.9657 18.8401 89.1853C23.0597 93.4049 28.7826 95.7754 34.75 95.7754H117.25C123.217 95.7754 128.94 93.4049 133.16 89.1853C137.379 84.9657 139.75 79.2428 139.75 73.2754C139.75 67.308 137.379 61.5851 133.16 57.3655C128.94 53.1459 123.217 50.7754 117.25 50.7754Z" fill="#ECC5B4"/>
    <path d="M94.45 22.5H57.55C50.608 22.5 43.9502 25.2577 39.0415 30.1665C34.1327 35.0752 31.375 41.733 31.375 48.675V73.875C31.375 85.7103 36.0766 97.0608 44.4454 105.43C52.8142 113.798 64.1647 118.5 76 118.5C87.8353 118.5 99.1858 113.798 107.555 105.43C115.923 97.0608 120.625 85.7103 120.625 73.875V48.45C120.566 41.547 117.782 34.947 112.879 30.0868C107.977 25.2266 101.353 22.4997 94.45 22.5Z" fill="#F4DAB7"/>
    <path d="M130.001 49.9498H130.451C129.595 41.2218 126.649 32.8284 121.863 25.4799C117.077 18.1313 110.591 12.0437 102.954 7.73234C95.3169 3.42095 86.7538 1.01258 77.9891 0.711006C69.2245 0.409437 60.5161 2.22355 52.6009 5.99983C52.034 7.91449 52.1942 9.97111 53.0509 11.7748C58.1371 22.3663 65.7006 31.5762 75.1009 38.6248C86.5354 47.1738 100.424 51.8033 114.701 51.8248C119.856 51.7861 124.989 51.157 130.001 49.9498Z" fill="#D6B5B0"/>
    <path d="M98.5 5.70046C90.1776 1.92757 81.0424 0.300683 71.9292 0.968485C62.816 1.63629 54.0154 4.57748 46.332 9.52326C38.6485 14.469 32.3271 21.2616 27.9455 29.2803C23.564 37.2989 21.262 46.2878 21.25 55.4255V58.3505C24.2036 58.8016 27.1872 59.0273 30.175 59.0255C40.1409 59.0143 49.9876 56.8585 59.0464 52.7044C68.1052 48.5503 76.1638 42.4952 82.675 34.9505C89.9444 26.5326 95.3389 16.664 98.5 6.00046V5.70046Z" fill="#D6B5B0"/>
</svg>
