<svg width="24" height="24" viewBox="0 0 24 24" fill="none" xmlns="http://www.w3.org/2000/svg">
<g clip-path="url(#clip0_3263_14062)">
<path d="M23.3407 17.9093L23.346 17.904C22.1314 16.9163 20.7716 16.0763 19.2814 15.4125C18.9382 14.3359 18.75 13.1906 18.75 12V6C18.75 2.68613 16.0639 0 12.75 0H11.25C7.93612 0 5.25 2.68613 5.25 6V12C5.25 13.1899 5.06213 14.3348 4.71938 15.411C3.22725 16.0654 1.89713 16.8934 0.654 17.904L0.65925 17.9093C0.252 18.3165 0 18.879 0 19.5V22.5C0 23.3291 0.670875 24 1.5 24H22.5C23.3291 24 24 23.3291 24 22.5V19.5C24 18.879 23.748 18.3165 23.3407 17.9093ZM7.5 7.125C7.5 6.29663 8.17163 5.625 9 5.625C9.783 5.625 10.4722 5.2245 10.875 4.61737C11.2778 5.2245 11.967 5.625 12.75 5.625H14.25C15.4924 5.625 16.5 6.63263 16.5 7.875C16.5 7.9455 16.5 8.0625 16.5 8.25C16.5 12.75 13.6991 15 12 15C10.3009 15 7.5 12.75 7.5 8.25C7.5 8.0625 7.5 7.125 7.5 7.125ZM9.62887 14.7896C10.41 15.4065 11.2463 15.75 12 15.75C12.7537 15.75 13.59 15.4065 14.3711 14.7896C15.3998 14.9314 16.3958 15.1714 17.3584 15.486C16.4329 16.4115 12.3667 20.4776 12.2242 20.6201C12.063 20.7814 11.9438 20.7878 11.7806 20.625C11.6363 20.481 7.5675 16.4123 6.64163 15.4864C7.60388 15.1714 8.60025 14.9314 9.62887 14.7896Z" fill="#636464"/>
<path d="M9.7056 8.42512C9.7161 8.40712 9.81735 8.25 10.1241 8.25C10.4271 8.25 10.5351 8.4135 10.5407 8.42175C10.6075 8.55113 10.7387 8.625 10.8745 8.625C10.9322 8.625 10.9911 8.61187 11.0459 8.58337C11.23 8.4885 11.3024 8.26237 11.2075 8.07825C11.0969 7.86337 10.744 7.5 10.1241 7.5C9.48998 7.5 9.14235 7.86862 9.0366 8.0865C8.94923 8.26725 9.02385 8.47837 9.20123 8.57325C9.37935 8.66887 9.6036 8.59912 9.7056 8.42512Z" fill="#636464"/>
<path d="M12.9524 8.57325C13.1306 8.66887 13.3548 8.59875 13.4568 8.42475C13.4673 8.40712 13.5686 8.25 13.8753 8.25C14.1783 8.25 14.2863 8.4135 14.2919 8.42175C14.3587 8.55113 14.4899 8.625 14.6257 8.625C14.6834 8.625 14.7423 8.61187 14.7971 8.58337C14.9812 8.4885 15.0536 8.26237 14.9587 8.07825C14.8481 7.86337 14.4952 7.5 13.8753 7.5C13.2412 7.5 12.8936 7.86862 12.7878 8.0865C12.7001 8.26762 12.7747 8.47837 12.9524 8.57325Z" fill="#636464"/>
</g>
<defs>
<clipPath id="clip0_3263_14062">
<rect width="24" height="24" fill="white"/>
</clipPath>
</defs>
</svg>
