<svg width="17" height="17" viewBox="0 0 17 17" fill="none" xmlns="http://www.w3.org/2000/svg">
<path fill-rule="evenodd" clip-rule="evenodd" d="M5.93835 3.83136L4.68199 2.11814C4.59655 2.00163 4.4351 1.97194 4.3138 2.05043C2.67011 3.11399 2.21828 4.73866 2.87772 5.93632C3.59891 7.24614 4.71121 8.85247 6.41735 10.5586C8.12349 12.2647 9.72982 13.377 11.0396 14.0982C12.2373 14.7577 13.862 14.3058 14.9255 12.6622C15.004 12.5409 14.9743 12.3794 14.8578 12.294L13.1446 11.0376C12.8927 10.8528 12.5585 10.8245 12.2791 10.9643L11.5962 11.3057C11.0154 11.5961 10.2192 11.6981 9.46554 11.3104C8.96165 11.0511 8.18503 10.5585 7.30123 9.67472C6.41744 8.79093 5.9248 8.0143 5.66557 7.51041C5.27783 6.75673 5.37985 5.96053 5.67026 5.37972L6.0117 4.69684C6.15142 4.4174 6.1231 4.08329 5.93835 3.83136ZM3.40838 0.651144C1.29129 2.02103 0.201488 4.53126 1.41774 6.7402C2.21151 8.18184 3.41721 9.91548 5.23884 11.7371C7.06047 13.5587 8.79412 14.7644 10.2358 15.5582C12.4447 16.7745 14.9549 15.6847 16.3248 13.5676C16.8828 12.7052 16.6717 11.5574 15.8434 10.95L14.1302 9.69359C13.3744 9.13933 12.3721 9.05439 11.5338 9.47354L10.8509 9.81498C10.6532 9.91382 10.4245 9.92945 10.228 9.82834C9.86994 9.64413 9.23541 9.25187 8.47974 8.49621C7.72408 7.74054 7.33182 7.10601 7.14761 6.74796C7.0465 6.55143 7.06213 6.32276 7.16097 6.12507L7.50241 5.4422C7.92157 4.60389 7.83662 3.60156 7.28236 2.84575L6.026 1.13253C5.41859 0.304245 4.27073 0.093151 3.40838 0.651144Z" fill="#696969"/>
</svg>
